<?xml version="1.0" standalone="no"?>
<!DOCTYPE svg PUBLIC "-//W3C//DTD SVG 20010904//EN"
 "http://www.w3.org/TR/2001/REC-SVG-20010904/DTD/svg10.dtd">
<svg version="1.0" xmlns="http://www.w3.org/2000/svg"
 width="1280.000000pt" height="1024.000000pt" viewBox="0 0 1280.000000 1024.000000"
 preserveAspectRatio="xMidYMid meet">

<g transform="translate(0.000000,1024.000000) scale(0.100000,-0.100000)"
fill="#000000" stroke="none">
<path d="M944 7775 c-10 -8 -14 -15 -8 -15 6 0 17 7 24 15 16 19 9 19 -16 0z"/>
<path d="M918 7743 c23 -9 12 -23 -13 -17 -20 5 -24 3 -19 -10 3 -9 17 -19 30
-22 29 -7 32 -41 7 -60 -10 -7 -34 -14 -53 -14 -33 -1 -34 -1 -16 -15 11 -8
28 -15 39 -15 10 0 15 -5 11 -11 -3 -6 -17 -8 -29 -5 -13 3 -27 1 -30 -4 -4
-6 -12 -8 -18 -4 -7 3 3 -6 21 -21 37 -31 34 -45 -11 -45 l-32 0 25 -20 25
-20 -30 0 c-26 -1 -28 -2 -12 -11 10 -6 24 -8 31 -6 7 3 18 2 25 -2 18 -12
-56 -44 -84 -37 -15 4 -25 1 -29 -9 -7 -18 -32 -20 -39 -2 -3 6 -6 3 -6 -7 -1
-16 -4 -17 -13 -8 -17 17 -39 15 -32 -3 4 -8 17 -18 30 -21 17 -4 24 -13 24
-30 0 -28 -26 -44 -72 -44 -31 -1 -32 -1 -14 -15 11 -8 29 -15 40 -15 15 0 17
-3 8 -12 -9 -9 -18 -9 -37 0 -21 10 -25 9 -25 -5 0 -13 -3 -14 -12 -5 -7 7
-24 12 -38 12 -26 0 -50 16 -50 33 0 5 7 7 15 3 8 -3 25 -1 37 3 17 7 19 10 8
14 -31 11 -79 16 -83 9 -2 -4 -3 -2 -1 5 5 19 -8 23 -30 8 -11 -8 -36 -15 -56
-15 -33 -1 -34 -2 -16 -15 11 -8 28 -15 38 -15 10 0 18 -5 18 -11 0 -7 -11 -9
-29 -6 -41 9 -56 -11 -25 -35 28 -23 23 -38 -13 -38 -25 0 -25 -1 -9 -19 18
-20 7 -38 -16 -25 -8 4 -9 3 -5 -2 5 -5 16 -9 25 -10 57 -3 57 -4 19 -24 -20
-11 -44 -20 -52 -20 -8 0 -15 -4 -15 -10 0 -10 23 -14 73 -10 31 2 37 -16 7
-25 -11 -3 -20 -11 -20 -16 0 -5 -25 -9 -56 -9 -34 0 -53 -4 -49 -10 3 -5 1
-10 -5 -10 -7 0 -10 6 -7 14 9 22 -4 27 -27 11 -11 -8 -33 -15 -49 -15 -25 0
-28 -2 -17 -15 7 -9 19 -14 25 -11 7 2 18 0 26 -4 11 -7 10 -10 -4 -16 -9 -3
-26 -4 -37 -1 -11 3 -23 1 -26 -4 -7 -12 -44 -12 -44 0 0 6 5 13 10 16 17 11
11 28 -8 20 -9 -4 -28 -8 -42 -9 -16 -1 -29 -9 -35 -23 -5 -13 -13 -23 -17
-23 -17 0 -6 37 22 74 16 21 27 42 24 47 -6 10 -34 0 -34 -12 0 -5 -4 -9 -10
-9 -5 0 -10 13 -10 29 0 17 -5 33 -10 36 -7 4 -10 -1180 -10 -3544 l0 -3551
5230 0 c4586 0 5230 2 5230 15 0 8 6 12 13 9 8 -3 13 5 15 23 2 30 17 43 50
43 14 0 22 6 22 18 0 14 2 15 10 2 8 -12 12 -13 19 -2 6 11 12 10 26 -4 17
-17 17 -17 11 2 -4 14 -2 21 8 21 8 0 12 -6 9 -14 -6 -14 9 -18 21 -5 4 4 13
7 19 7 7 0 12 5 12 12 0 6 3 15 8 19 4 4 7 0 7 -9 0 -11 5 -14 15 -10 9 3 24
-2 34 -11 10 -9 25 -14 34 -10 11 4 17 -2 20 -18 4 -21 4 -20 6 5 1 18 -4 27
-15 27 -8 0 -13 4 -9 10 7 12 35 1 35 -14 0 -8 12 -11 35 -8 19 2 35 0 35 -4
0 -8 57 -10 85 -4 6 1 19 1 29 0 14 -1 17 3 13 15 -4 9 -3 14 2 11 5 -3 19 3
31 14 25 22 40 19 22 -3 -9 -11 0 -13 47 -13 33 1 57 4 55 8 -3 4 22 5 55 1
52 -5 61 -3 61 10 0 11 5 14 17 10 11 -4 14 -3 9 5 -4 7 -2 12 3 12 6 0 11
-12 12 -27 l1 -28 8 25 8 25 1 -28 c1 -24 4 -27 34 -25 27 3 32 0 31 -17 0
-13 6 -21 17 -21 10 0 16 3 14 6 -9 14 12 29 33 23 12 -3 19 -10 16 -15 -3 -5
-13 -7 -21 -4 -8 4 -11 1 -8 -5 4 -6 13 -8 20 -5 7 2 16 -5 20 -17 7 -22 7
-22 14 2 3 14 13 26 21 29 11 2 11 1 3 -5 -19 -14 -9 -48 16 -51 15 -2 21 -9
17 -18 -5 -12 82 -14 604 -14 l610 0 0 3549 c0 3372 -1 3550 -17 3554 -17 4
-17 5 0 6 12 1 17 9 17 29 0 15 -4 22 -8 17 -10 -15 -65 -13 -81 3 -12 12 -10
14 15 12 55 -4 58 -1 28 27 -18 17 -24 28 -16 31 15 5 16 38 1 48 -10 6 -21
-4 -33 -31 -3 -6 -9 -3 -15 5 -15 21 -14 30 5 30 8 0 13 4 10 9 -4 5 0 11 6
14 7 2 10 7 6 11 -3 4 -16 1 -28 -6 -18 -10 -24 -10 -27 0 -9 25 -22 11 -16
-18 5 -26 3 -30 -16 -30 -35 0 -27 -18 24 -55 24 -17 7 -20 -42 -6 -19 6 -35
6 -38 1 -9 -14 53 -42 78 -35 21 6 21 5 3 -9 -10 -9 -23 -13 -28 -10 -14 9
-60 -5 -53 -16 3 -5 20 -14 38 -20 l32 -10 -33 5 c-17 2 -32 0 -32 -5 0 -6 -8
-10 -17 -10 -16 -1 -16 -2 2 -15 51 -37 55 -55 12 -55 -12 0 -42 -3 -65 -6
-57 -8 -78 11 -23 20 23 3 41 10 41 15 0 10 -58 23 -71 15 -5 -3 -16 2 -25 10
-14 15 -12 16 27 16 l42 0 -29 27 c-18 17 -24 28 -16 31 20 6 14 49 -8 55 -14
4 -18 10 -14 22 6 14 3 16 -14 11 -17 -6 -21 -4 -16 8 3 9 1 16 -5 16 -6 0
-11 -10 -12 -22 0 -13 -3 -17 -6 -10 -10 24 -22 11 -17 -18 6 -25 3 -30 -14
-30 -15 0 -19 -5 -15 -20 3 -11 8 -20 12 -20 4 0 16 -7 27 -15 17 -14 15 -15
-33 -10 -29 4 -53 4 -53 1 0 -13 63 -36 82 -30 14 4 18 2 14 -5 -4 -6 -25 -11
-46 -11 -41 0 -62 -16 -36 -26 13 -5 13 -8 1 -20 -7 -8 -20 -14 -27 -14 -7 0
2 -12 20 -26 33 -26 34 -49 1 -41 -27 7 -35 -12 -13 -28 18 -14 18 -14 -6 -15
-24 -1 -24 -1 -7 -15 11 -7 25 -11 33 -8 10 4 12 0 8 -11 -3 -9 -14 -16 -24
-16 -31 0 -49 -11 -43 -26 3 -9 21 -14 52 -15 25 0 39 -3 31 -6 -8 -4 -21 -12
-28 -20 -7 -7 -29 -13 -49 -13 -50 0 -37 -23 20 -34 70 -14 58 -30 -28 -38
l-30 -3 29 -15 c42 -22 37 -34 -19 -43 -65 -9 -104 -9 -124 3 -12 7 -9 9 15
10 18 0 39 8 49 20 18 20 17 20 -21 20 -21 0 -46 5 -54 10 -11 7 -8 10 16 10
16 0 39 7 50 15 18 14 18 14 -6 16 -14 2 -32 3 -40 4 -8 0 -24 6 -35 13 -17
10 -14 11 24 12 l44 0 -29 27 c-18 17 -24 28 -16 31 15 5 16 38 1 48 -10 6
-21 -4 -33 -31 -3 -6 -9 -3 -15 5 -15 20 -14 30 3 30 14 0 31 29 22 37 -2 2
-14 -2 -25 -9 -18 -11 -23 -11 -31 2 -10 16 -13 8 -10 -27 1 -17 -4 -23 -18
-23 -15 0 -19 -5 -15 -20 3 -11 8 -20 12 -20 4 0 16 -7 27 -15 18 -14 17 -15
-16 -13 -19 1 -40 5 -47 10 -6 5 -14 5 -17 -1 -10 -15 47 -41 75 -35 23 5 23
5 5 -10 -10 -8 -23 -13 -28 -10 -14 9 -60 -5 -53 -16 3 -5 20 -14 38 -20 l32
-10 -32 5 c-20 3 -33 0 -33 -6 0 -7 -10 -9 -24 -5 -19 5 -29 0 -41 -16 -13
-20 -17 -21 -25 -8 -14 21 -12 30 4 30 14 0 31 29 21 38 -2 3 -12 -1 -21 -9
-15 -12 -16 -11 -10 9 5 13 3 22 -3 22 -6 0 -11 -10 -12 -22 0 -13 -3 -17 -6
-10 -10 24 -22 11 -16 -18 6 -32 -12 -41 -35 -18 -9 9 -17 7 -36 -11 -21 -19
-24 -20 -30 -6 -9 24 -8 25 12 25 11 0 18 8 19 20 2 23 -7 26 -26 8 -11 -11
-12 -9 -6 10 4 16 2 22 -8 22 -10 0 -14 -7 -10 -22 4 -19 3 -20 -6 -8 -11 16
-14 9 -11 -27 1 -17 -4 -23 -18 -23 -15 0 -19 -5 -15 -20 3 -11 8 -20 12 -20
4 0 16 -7 27 -15 18 -14 17 -15 -16 -12 -20 2 -41 6 -47 10 -6 4 -14 3 -18 -2
-9 -15 48 -41 76 -35 23 5 23 5 5 -10 -10 -8 -23 -13 -28 -10 -14 9 -60 -5
-53 -16 3 -5 20 -14 38 -20 l32 -10 -32 5 c-18 2 -33 0 -33 -5 0 -4 -8 -10
-17 -12 -14 -3 -10 -8 15 -22 35 -18 38 -40 6 -42 -10 -1 -23 -2 -28 -3 -5 -1
-1 -10 9 -21 18 -19 17 -20 -4 -20 -12 0 -19 -4 -16 -10 3 -5 17 -10 30 -10
34 0 22 -28 -13 -32 -16 -2 -28 -10 -30 -20 -3 -15 4 -18 45 -19 26 0 41 -3
33 -6 -8 -3 -17 -9 -20 -14 -3 -4 -18 -11 -33 -14 -21 -6 -27 -4 -27 9 0 10
-9 16 -25 16 -18 0 -23 4 -19 15 5 11 -1 15 -20 15 -35 0 -33 15 4 30 17 7 30
16 30 20 0 10 -37 20 -72 20 -15 0 -30 5 -33 10 -4 6 8 10 27 10 32 0 58 14
58 31 0 4 -19 10 -42 14 -58 10 -83 24 -42 25 18 0 38 8 49 20 17 19 17 19
-19 18 -20 -1 -42 4 -48 10 -9 9 -6 12 13 12 14 0 33 6 44 13 17 13 16 14 -15
20 -17 4 -36 4 -41 1 -5 -3 -16 2 -25 10 -14 15 -12 16 27 16 l42 0 -29 27
c-18 17 -24 28 -16 31 16 5 16 52 -1 52 -7 0 -18 -10 -26 -21 -10 -18 -15 -19
-22 -8 -13 20 -11 29 5 29 8 0 17 7 20 16 9 24 8 26 -16 18 -20 -6 -21 -5 -10
9 7 8 9 18 4 21 -13 8 -22 -4 -23 -28 0 -12 -3 -15 -6 -8 -10 24 -22 11 -16
-18 5 -26 3 -30 -16 -30 -35 0 -28 -17 24 -56 19 -14 18 -15 -16 -11 -20 3
-42 7 -47 11 -6 3 -13 2 -17 -3 -9 -15 53 -43 77 -35 14 4 18 2 14 -5 -4 -6
-22 -11 -39 -11 -18 0 -39 -4 -47 -10 -12 -8 -12 -10 3 -15 14 -6 14 -9 2 -21
-7 -8 -19 -14 -26 -14 -9 0 -8 -4 1 -15 7 -8 18 -15 25 -15 19 0 27 -30 10
-36 -8 -3 -18 -3 -24 0 -19 12 -23 -15 -5 -29 18 -14 18 -14 -6 -15 -24 -1
-24 -1 -7 -15 11 -7 25 -11 33 -8 10 4 12 0 8 -12 -5 -12 -15 -16 -38 -12 -17
2 -39 -1 -49 -7 -13 -8 -20 -8 -27 3 -6 11 -9 5 -12 -20 -2 -25 -7 -33 -20
-31 -26 4 -10 -37 18 -44 42 -11 26 -26 -21 -20 -25 2 -45 1 -45 -3 0 -14 47
-30 71 -25 23 5 23 5 5 -10 -10 -8 -23 -13 -28 -10 -14 9 -60 -5 -53 -16 3 -5
20 -14 38 -20 l32 -10 -32 3 c-18 2 -33 0 -33 -4 0 -4 -8 -9 -17 -11 -13 -2
-7 -10 22 -27 34 -20 37 -24 22 -33 -10 -5 -25 -7 -32 -4 -21 8 -27 -10 -9
-25 15 -12 14 -14 -7 -20 -23 -6 -22 -7 9 -14 70 -16 -4 -50 -83 -38 -56 8
-79 22 -37 23 18 0 40 8 52 20 19 19 19 19 -13 18 -18 -1 -42 4 -53 10 -17 10
-16 11 12 12 16 0 39 7 50 15 18 14 18 14 -6 16 -14 1 -33 1 -43 1 -10 -1 -25
5 -33 13 -14 13 -11 15 27 15 l42 0 -29 27 c-18 17 -24 28 -16 31 14 4 16 38
3 47 -5 3 -17 -5 -26 -17 -13 -20 -17 -21 -25 -8 -14 21 -12 30 4 30 14 0 31
29 22 37 -2 2 -14 -2 -25 -9 -18 -11 -23 -11 -31 2 -10 15 -11 13 -13 -30 -2
-17 -7 -24 -19 -22 -29 4 -9 -36 23 -47 45 -16 34 -23 -26 -17 -30 3 -55 3
-55 1 0 -12 60 -33 81 -29 22 5 22 4 7 -9 -20 -16 -157 -14 -186 2 -14 9 -11
11 18 11 32 1 70 19 70 34 0 3 -17 6 -37 6 -21 0 -45 5 -53 10 -11 7 -8 10 16
10 16 0 39 7 50 15 18 14 18 14 -6 16 -14 1 -33 1 -43 1 -10 -1 -25 5 -33 13
-14 13 -11 15 27 15 l42 0 -29 27 c-18 17 -24 28 -16 31 14 4 16 38 3 47 -5 3
-17 -5 -26 -17 -13 -20 -17 -21 -25 -8 -14 22 -12 30 8 30 11 0 18 8 19 21 1
14 -2 19 -13 15 -8 -3 -21 -9 -29 -12 -8 -3 -15 -1 -15 6 0 6 -4 9 -9 6 -4 -3
-6 -17 -3 -31 3 -20 0 -25 -16 -25 -15 0 -19 -5 -15 -20 3 -11 8 -20 12 -20 4
0 16 -7 27 -15 17 -14 15 -15 -33 -10 -29 2 -53 3 -53 0 0 -12 60 -33 81 -29
23 5 23 5 5 -10 -10 -8 -23 -13 -28 -10 -14 9 -60 -5 -53 -16 3 -5 20 -14 38
-20 l32 -10 -32 5 c-18 2 -33 0 -33 -5 0 -4 -8 -10 -17 -12 -14 -3 -10 -8 15
-22 35 -18 38 -40 6 -42 -10 -1 -23 -2 -28 -3 -5 -1 -1 -10 8 -20 17 -19 17
-20 -6 -24 -20 -3 -19 -5 10 -12 40 -9 37 -26 -7 -38 -44 -11 -34 -31 18 -35
l42 -3 -24 -20 c-15 -11 -41 -19 -61 -19 -20 0 -36 -4 -36 -10 0 -9 61 -30 88
-30 6 0 12 -4 12 -10 0 -10 -23 -17 -75 -23 l-30 -3 33 -13 c18 -7 31 -18 29
-25 -5 -15 -123 -29 -145 -17 -15 9 -14 10 5 11 12 0 34 5 50 11 l28 12 -28 8
c-16 4 -35 5 -43 2 -7 -3 -21 2 -29 11 -15 15 -13 16 24 16 l40 0 -27 27 c-17
17 -22 28 -14 31 14 4 16 38 3 47 -5 3 -16 -4 -25 -16 -8 -12 -19 -18 -25 -14
-16 9 -13 35 3 35 14 0 31 29 21 38 -2 3 -11 -1 -20 -8 -8 -7 -21 -10 -29 -7
-10 4 -16 -2 -18 -21 -2 -15 -9 -26 -15 -24 -7 1 -13 -7 -13 -18 0 -11 6 -20
13 -20 7 0 22 -7 33 -16 18 -14 15 -15 -38 -10 -32 2 -58 3 -58 1 0 -12 60
-33 81 -28 20 5 22 3 11 -8 -7 -8 -26 -14 -43 -15 -16 -1 -33 -5 -37 -8 -10
-10 19 -26 48 -26 22 -1 23 -2 8 -11 -12 -7 -24 -6 -38 1 -12 6 -20 7 -20 1 0
-5 -8 -11 -17 -14 -16 -3 -16 -5 2 -12 29 -12 55 -36 49 -46 -3 -5 -20 -9 -37
-9 -29 -1 -30 -2 -14 -14 23 -18 22 -26 -5 -26 -21 -1 -21 -2 -5 -11 10 -6 25
-8 33 -5 11 4 14 1 12 -12 -3 -14 -15 -17 -72 -17 -40 -1 -75 4 -84 12 -15 11
-13 12 15 13 17 0 39 8 49 17 16 17 15 18 -22 25 -73 15 -85 19 -79 27 3 5 14
7 25 4 11 -3 30 4 45 15 l26 21 -40 -2 c-22 -1 -46 4 -53 11 -9 9 -7 12 9 12
12 0 34 5 50 11 l28 12 -28 8 c-16 4 -35 5 -43 2 -7 -3 -21 2 -29 11 -15 15
-13 16 27 16 l43 0 -25 18 c-26 18 -37 42 -20 42 13 0 13 37 1 45 -5 3 -16 -4
-25 -16 -8 -12 -19 -18 -25 -14 -16 9 -13 35 3 35 8 0 17 7 20 16 9 24 7 28
-9 14 -9 -7 -26 -10 -42 -6 -26 6 -27 5 -9 -8 17 -14 17 -16 2 -31 -9 -9 -20
-13 -26 -10 -5 3 -10 -3 -10 -14 0 -13 9 -21 30 -26 53 -12 35 -28 -25 -22
-30 3 -55 4 -55 2 0 -12 60 -33 81 -28 19 5 22 3 12 -7 -10 -11 -21 -14 -72
-19 -25 -2 9 -31 38 -32 23 0 24 -1 6 -8 -11 -5 -28 -4 -37 1 -11 5 -18 5 -18
-1 0 -5 -8 -11 -17 -13 -13 -2 -8 -9 20 -26 43 -25 41 -42 -6 -42 -29 -1 -30
-2 -14 -14 9 -7 17 -16 17 -19 0 -12 -95 -3 -108 10 -10 9 -4 12 30 15 43 3
43 3 17 17 -24 12 -36 41 -17 41 4 0 8 9 8 20 0 25 -25 26 -39 3 -7 -14 -12
-15 -22 -6 -13 13 -4 48 10 39 5 -3 11 3 14 15 4 16 3 18 -9 8 -8 -6 -23 -9
-34 -6 -21 5 -28 -9 -8 -15 9 -3 8 -9 -5 -22 -9 -9 -21 -15 -26 -11 -6 3 -9
-4 -8 -14 1 -13 11 -22 29 -26 49 -11 32 -28 -23 -23 -45 5 -49 4 -35 -10 8
-8 29 -15 46 -14 27 1 29 -2 19 -14 -7 -8 -19 -14 -28 -13 -9 1 -24 1 -35 0
-30 -2 1 -31 33 -31 22 -1 24 -2 9 -11 -12 -7 -24 -6 -38 1 -12 6 -20 7 -20 1
0 -5 -8 -11 -17 -13 -13 -2 -8 -9 20 -26 43 -25 41 -42 -6 -42 l-32 0 25 -20
25 -20 -30 0 c-26 -1 -28 -2 -12 -11 10 -6 25 -8 33 -5 11 4 14 1 12 -11 -2
-10 -18 -21 -36 -27 -17 -5 -32 -12 -32 -17 0 -13 36 -20 64 -13 14 3 26 3 26
-1 0 -16 -47 -44 -73 -45 -15 0 -39 -7 -53 -16 -21 -14 -29 -15 -52 -4 l-27
13 43 10 c63 15 49 34 -19 28 -9 -1 -22 5 -29 14 -13 16 -5 19 50 16 l25 -1
-24 13 c-13 8 -33 13 -45 10 -20 -3 -20 -3 -1 5 11 5 20 13 21 18 0 5 4 17 9
27 9 22 1 32 -20 23 -11 -4 -14 -13 -10 -25 3 -12 0 -21 -10 -25 -8 -3 -15 -1
-15 4 0 6 5 10 10 10 6 0 1 9 -11 21 -11 11 -26 18 -32 15 -9 -3 -9 -5 1 -5 6
-1 12 -6 12 -11 0 -6 -10 -8 -23 -5 -17 5 -24 2 -24 -9 0 -9 13 -18 29 -21 49
-11 32 -28 -22 -23 -28 3 -50 4 -50 2 0 -2 12 -10 28 -18 19 -9 34 -11 51 -4
25 9 25 9 6 -12 -10 -11 -26 -20 -34 -19 -9 1 -24 1 -35 0 -29 -2 0 -31 31
-31 15 0 22 -4 17 -11 -3 -6 -17 -8 -31 -4 -34 8 -60 -2 -66 -25 -3 -11 -1
-18 4 -14 5 3 9 1 9 -5 0 -23 -26 -15 -37 11 -7 15 -18 28 -25 27 -10 0 -10
-2 -1 -6 7 -2 13 -12 13 -21 0 -12 -3 -13 -12 -4 -17 17 -39 15 -32 -3 4 -8
17 -18 31 -21 13 -4 22 -11 20 -18 -4 -12 -27 -13 -72 -3 -29 7 -29 7 -10 -9
14 -10 33 -14 60 -11 22 2 51 1 65 -4 22 -8 22 -8 -6 -4 -18 2 -40 -2 -50 -10
-11 -8 -35 -15 -54 -15 -33 -1 -34 -1 -16 -15 11 -8 28 -15 39 -15 10 0 15 -5
12 -11 -4 -6 -19 -7 -35 -4 -17 4 -33 1 -41 -8 -15 -15 -40 -18 -76 -11 -34 7
-28 19 14 30 46 12 56 34 14 34 -38 0 -81 16 -81 31 0 6 12 9 28 8 29 -4 52 6
52 22 0 6 -9 8 -20 4 -21 -7 -66 12 -55 23 7 7 11 8 55 11 20 1 22 3 10 11 -8
5 -26 10 -40 10 -14 0 -34 7 -44 15 -19 15 -19 15 5 16 13 1 35 1 49 1 l25 -1
-27 11 c-24 10 -27 16 -22 42 3 16 7 33 10 38 3 4 -1 8 -9 8 -8 0 -17 -7 -21
-15 -7 -19 -36 -19 -36 0 0 8 -8 15 -17 14 -11 0 -13 -3 -5 -6 23 -9 12 -23
-13 -17 -20 5 -24 3 -19 -10 3 -9 17 -19 30 -22 24 -6 31 -18 16 -28 -4 -2
-27 -1 -52 4 -41 7 -43 7 -25 -7 11 -8 34 -13 53 -11 17 2 32 2 32 0 0 -14
-40 -31 -70 -32 -33 -1 -34 -1 -16 -15 11 -8 28 -15 39 -15 10 0 15 -5 11 -11
-3 -6 -17 -8 -29 -5 -26 7 -55 -1 -55 -15 0 -5 6 -9 13 -9 18 0 49 -34 40 -43
-3 -4 -17 -7 -30 -7 -27 0 -31 -15 -6 -24 15 -6 15 -9 3 -16 -8 -5 -18 -6 -24
-3 -5 3 -6 1 -2 -6 4 -7 15 -11 24 -10 50 5 56 -1 19 -21 -20 -11 -44 -20 -52
-20 -8 0 -15 -4 -15 -10 0 -11 19 -14 68 -11 17 2 32 0 32 -4 0 -17 -48 -44
-77 -45 -51 0 -47 -17 7 -31 75 -19 63 -43 -22 -41 -26 0 -50 -3 -53 -8 -3 -6
0 -7 7 -5 8 3 30 0 50 -7 44 -15 38 -40 -8 -39 -16 0 -42 1 -58 1 -30 1 -56
15 -56 32 0 5 6 8 13 7 24 -3 37 1 37 12 0 7 -9 9 -24 5 -15 -4 -26 -1 -29 7
-4 9 -6 9 -6 0 -1 -7 -6 -13 -12 -13 -6 0 -9 6 -6 14 8 21 -4 28 -22 12 -9 -8
-34 -16 -56 -18 l-40 -3 45 -16 c44 -16 44 -17 20 -27 -14 -5 -27 -6 -31 -1
-3 5 -14 2 -25 -6 -10 -8 -13 -15 -7 -15 7 0 22 -8 32 -17 20 -16 20 -17 1
-30 -10 -7 -27 -10 -37 -7 -17 5 -16 4 1 -10 26 -21 17 -27 -42 -33 -36 -3
-52 0 -61 11 -8 9 -12 16 -10 17 2 0 13 2 24 4 45 8 56 12 58 20 1 5 -12 11
-29 12 -45 4 -86 21 -79 34 4 5 21 9 38 7 18 -2 32 2 34 10 3 7 -5 12 -21 12
-24 0 -39 12 -42 36 -1 6 11 8 30 6 21 -3 28 -1 21 6 -14 14 -57 18 -74 8 -11
-7 -13 -5 -8 7 8 22 -8 30 -23 12 -7 -8 -29 -15 -49 -15 -34 -1 -35 -2 -17
-15 11 -8 28 -15 39 -15 10 0 15 -4 12 -10 -3 -5 -21 -10 -40 -10 -19 0 -37
-4 -40 -10 -3 -5 -1 -10 5 -10 6 0 18 -7 27 -15 20 -21 -1 -49 -31 -41 -19 5
-20 4 -3 -8 9 -7 17 -18 17 -23 0 -6 9 -13 20 -16 25 -6 27 -29 3 -25 -10 2
-17 -3 -15 -10 1 -6 -1 -11 -5 -11 -25 4 -53 -3 -53 -12 0 -8 14 -10 45 -6 53
8 60 -7 20 -41 -30 -27 -32 -39 -4 -47 28 -9 19 -26 -22 -41 -19 -7 -27 -13
-18 -13 9 -1 19 -10 22 -21 3 -11 0 -18 -6 -17 -6 1 -13 -6 -15 -16 -2 -12 3
-20 17 -24 20 -5 21 -6 4 -20 -21 -17 4 -6 27 12 9 7 35 10 63 7 47 -4 62 -17
30 -25 -12 -3 -8 -5 9 -6 14 0 35 -4 45 -7 17 -5 17 -5 1 9 -22 18 -22 23 -2
31 8 3 13 2 10 -3 -3 -5 9 -16 27 -25 24 -12 27 -16 12 -16 -11 0 -31 -8 -45
-16 -17 -10 -19 -13 -5 -9 11 4 34 11 52 16 24 7 31 14 27 27 -5 14 -3 14 10
-2 15 -19 16 -19 36 4 23 26 40 20 19 -7 -13 -16 -12 -17 3 -5 9 8 22 11 28 7
5 -3 13 0 16 9 3 8 12 17 19 20 10 3 12 0 8 -11 -5 -12 -2 -15 13 -11 17 4 20
1 17 -26 -2 -17 0 -25 3 -18 5 10 9 10 20 1 12 -10 12 -4 0 35 -8 25 -10 46
-5 46 5 0 9 -8 10 -17 0 -15 2 -15 9 2 7 17 9 17 9 3 1 -17 11 -22 39 -19 6 1
12 -4 12 -11 0 -13 58 -45 73 -40 4 1 7 -4 7 -10 0 -9 4 -8 10 2 7 10 10 11
11 3 1 -7 2 -17 3 -23 0 -5 6 -9 11 -7 6 1 9 5 8 9 -3 8 37 22 44 15 3 -3 2
-11 -2 -17 -6 -9 -10 -9 -17 1 -8 12 -9 11 -6 0 8 -27 25 -22 40 11 8 18 13
27 11 21 -1 -7 3 -13 9 -13 9 0 9 -3 0 -12 -16 -16 -16 -42 0 -32 8 5 9 2 5
-10 -4 -10 -7 -20 -7 -22 0 -2 -9 -4 -20 -4 -11 0 -20 -4 -20 -9 0 -10 70 -69
83 -69 12 0 22 -12 11 -13 -99 -6 -110 -12 -75 -40 22 -18 22 -19 3 -19 -12 0
-23 -4 -27 -9 -5 -10 -2 -14 45 -51 23 -18 24 -19 4 -20 -22 0 -74 -22 -74
-31 0 -12 36 -36 63 -43 44 -10 31 -23 -32 -30 -51 -6 -59 -10 -58 -27 1 -14
13 -23 42 -30 22 -6 51 -16 65 -22 22 -10 17 -12 -47 -17 -66 -5 -71 -6 -59
-22 7 -10 30 -25 52 -34 33 -14 36 -17 20 -26 -9 -5 -24 -7 -32 -4 -15 6 -104
-12 -104 -21 0 -2 11 -16 25 -31 27 -29 31 -42 13 -42 -6 0 -1 -11 12 -25 20
-21 21 -25 6 -25 -9 0 -29 -8 -43 -18 -15 -9 -24 -11 -20 -4 5 7 3 12 -7 12
-9 0 -16 9 -16 20 0 11 -7 20 -15 20 -8 0 -15 5 -15 10 0 6 -4 10 -10 10 -5 0
-10 -6 -10 -14 0 -11 -10 -13 -42 -9 -24 3 -50 10 -58 15 -10 6 -4 8 20 5 26
-3 44 2 70 21 19 15 37 28 40 30 8 6 -24 22 -36 18 -6 -2 -16 -1 -23 3 -9 6
-3 14 20 28 31 20 31 21 11 32 -11 6 -27 8 -35 6 -7 -3 -19 0 -26 8 -9 12 -7
16 10 20 19 5 20 8 9 21 -7 9 -18 16 -25 16 -18 0 -37 47 -21 53 10 4 13 33 7
70 0 5 -11 7 -23 5 -21 -3 -23 1 -20 31 3 30 2 33 -18 28 -16 -4 -20 -2 -16 9
3 8 -4 24 -15 35 -20 20 -21 20 -26 0 -3 -13 -10 -18 -21 -14 -12 5 -14 1 -10
-14 4 -16 0 -23 -14 -26 -13 -4 -17 -10 -12 -18 9 -16 11 -69 2 -69 -4 0 -10
4 -13 10 -3 6 -13 10 -21 10 -11 0 -13 -6 -8 -22 4 -13 7 -31 6 -40 0 -10 5
-18 12 -18 7 0 21 -7 32 -16 10 -8 13 -12 5 -8 -23 12 -95 14 -111 4 -13 -9
-13 -11 1 -20 9 -5 27 -18 40 -29 l24 -20 -32 -1 c-36 0 -45 -22 -17 -38 14
-8 14 -11 -7 -26 -13 -9 -30 -16 -37 -16 -23 0 5 -28 47 -48 52 -26 51 -42 -3
-40 -59 3 -68 -8 -31 -40 25 -21 26 -25 9 -20 -12 3 -27 2 -34 -2 -16 -10 46
-54 65 -46 8 3 15 1 15 -4 0 -5 -19 -14 -42 -21 -24 -6 -51 -15 -61 -21 -18
-9 -18 -11 4 -26 13 -9 33 -18 44 -20 11 -1 24 -7 30 -13 16 -16 -14 -29 -67
-29 -87 0 -65 -42 32 -62 61 -12 79 -27 38 -30 -69 -4 -175 -5 -190 -1 -25 6
-22 19 5 27 l22 6 -27 23 c-16 13 -28 28 -28 35 0 7 -6 12 -12 12 -7 0 -5 5 5
11 12 7 17 21 15 44 -2 30 -5 34 -24 29 -14 -4 -23 0 -27 10 -4 9 -3 16 2 16
4 0 8 7 8 15 0 9 -10 15 -26 15 -19 0 -22 3 -13 12 16 16 15 28 -3 28 -8 0
-15 5 -15 10 0 6 -4 10 -10 10 -5 0 -10 -9 -10 -21 0 -13 -4 -18 -12 -13 -8 5
-9 2 -5 -9 5 -12 1 -17 -13 -17 -17 0 -19 -5 -13 -45 5 -43 -6 -61 -22 -35 -3
6 -10 10 -16 10 -12 0 -12 -37 1 -45 8 -5 7 -11 -1 -21 -9 -11 -8 -14 8 -14
10 0 28 -7 39 -15 22 -17 14 -18 -41 -5 -42 10 -85 4 -85 -11 0 -5 7 -9 15 -9
8 0 15 -4 15 -9 0 -5 11 -12 25 -15 32 -8 25 -22 -15 -31 -34 -7 -38 -19 -12
-35 12 -8 13 -13 4 -16 -6 -3 -9 -10 -6 -16 3 -5 0 -9 -7 -7 -8 1 -23 1 -34 0
-19 -2 -19 -3 4 -21 13 -11 29 -20 36 -20 13 0 51 -38 44 -45 -3 -2 -24 -5
-47 -6 -47 -3 -54 -19 -20 -43 l22 -16 -27 0 c-34 0 -35 -13 -2 -34 20 -13 30
-14 46 -6 19 10 20 10 10 -8 -6 -11 -25 -24 -43 -27 -18 -4 -41 -12 -51 -17
-16 -8 -16 -10 0 -26 12 -13 32 -17 77 -16 60 2 60 2 26 -11 -19 -6 -34 -16
-32 -21 1 -5 -23 -11 -53 -14 -30 -3 -55 -8 -55 -12 0 -5 0 -12 0 -17 0 -10
29 -22 65 -27 11 -2 34 -7 50 -12 l30 -9 -28 -12 c-16 -6 -51 -10 -78 -8 -27
1 -49 0 -49 -4 0 -11 36 -39 51 -39 19 -1 50 -25 42 -33 -3 -4 -32 -7 -64 -7
-32 0 -61 -5 -64 -10 -4 -6 -11 -8 -16 -5 -14 10 -11 -3 9 -26 9 -11 26 -25
37 -29 19 -8 19 -9 -5 -18 -14 -6 -19 -11 -12 -11 7 -1 11 -5 7 -11 -3 -5 9
-14 27 -19 l33 -9 -35 -1 c-37 -2 -91 -31 -57 -31 9 0 17 -4 17 -10 0 -5 11
-12 25 -16 14 -3 25 -10 25 -16 0 -5 -8 -7 -18 -4 -24 8 -57 -17 -49 -37 3 -8
19 -18 36 -22 17 -4 31 -12 31 -18 0 -17 50 -37 82 -33 l27 3 -25 -41 c-14
-23 -39 -65 -56 -94 -17 -30 -36 -56 -43 -58 -7 -3 -194 31 -416 75 -529 105
-599 117 -759 136 -168 20 -168 20 -145 45 18 20 17 20 -28 20 -52 0 -79 8
-71 21 3 5 10 7 15 4 16 -11 47 5 52 26 5 19 2 20 -27 15 -40 -8 -50 1 -29 23
16 15 14 16 -23 19 -39 3 -74 22 -41 22 20 0 87 41 87 53 0 4 -8 10 -17 13
-10 3 -25 9 -34 14 -8 4 -23 3 -33 -2 -13 -7 -26 -6 -45 3 -26 13 -26 13 21
19 33 4 52 13 66 30 18 22 18 26 5 33 -8 5 -23 7 -34 4 -10 -3 -19 -1 -19 4 0
5 -11 7 -24 3 -14 -3 -36 1 -53 10 l-28 15 48 1 c31 0 49 5 53 14 3 8 14 16
25 19 10 3 19 10 19 15 0 14 -51 20 -71 8 -10 -6 -25 -3 -45 8 l-29 17 28 -6
c15 -3 27 -1 27 4 0 6 6 8 13 6 17 -7 72 31 58 39 -6 4 -37 8 -68 9 -61 2 -99
20 -63 30 11 3 22 2 25 -3 6 -9 53 -1 60 11 3 4 -8 15 -24 25 -17 10 -27 23
-24 31 3 8 -2 13 -13 14 -17 0 -17 1 1 9 19 7 24 31 16 72 -2 14 -41 -5 -56
-28 -20 -31 -35 -31 -35 1 0 20 5 25 26 25 19 0 25 4 20 15 -3 8 -2 15 3 15 4
0 8 7 8 15 0 18 -28 20 -45 3 -18 -18 -15 -1 5 29 17 25 17 27 1 21 -11 -5
-18 -1 -21 10 -4 14 -6 13 -12 -5 -4 -13 -12 -20 -18 -16 -6 4 -8 0 -4 -10 6
-15 -2 -21 -24 -19 -4 1 -4 -19 -1 -44 5 -44 4 -45 -21 -39 -20 5 -25 3 -23
-9 1 -8 5 -18 8 -22 4 -3 4 -12 1 -20 -3 -8 1 -14 10 -14 8 0 28 -7 43 -15 29
-15 29 -16 -23 -11 -29 2 -57 7 -62 10 -12 8 -41 -3 -41 -15 0 -5 8 -9 17 -9
9 0 13 -3 10 -7 -13 -12 56 -34 87 -28 l31 6 -24 -15 c-14 -7 -31 -12 -38 -9
-7 3 -30 2 -51 -2 l-37 -7 30 -24 c23 -18 26 -24 13 -24 -10 0 -18 -4 -18 -10
0 -5 -9 -10 -19 -10 -34 0 -34 -20 1 -34 18 -8 42 -24 52 -35 19 -21 19 -21
-20 -21 -59 0 -71 -13 -38 -39 26 -21 25 -25 -8 -22 -29 3 -30 -18 -1 -33 21
-10 34 -11 47 -4 16 9 17 8 7 -11 -12 -21 -45 -29 -55 -12 -3 4 -20 11 -37 15
-22 4 -30 10 -25 21 4 12 -3 15 -34 15 -21 0 -42 5 -45 10 -3 6 3 10 14 10 12
0 21 5 21 10 0 6 6 10 13 10 8 0 22 9 31 19 23 25 9 34 -58 36 -73 4 -76 4
-76 14 0 5 21 11 48 15 33 4 51 12 61 27 11 18 11 23 -1 30 -7 5 -21 7 -30 5
-10 -2 -18 0 -18 5 0 5 -11 7 -24 3 -14 -3 -36 1 -53 10 l-28 15 47 1 c28 0
50 5 55 13 4 8 16 16 26 20 9 3 17 11 17 16 0 13 -51 18 -71 7 -10 -6 -25 -3
-45 8 -23 14 -25 16 -7 13 13 -3 25 -1 28 4 3 4 11 6 18 4 17 -7 72 31 58 39
-6 4 -37 8 -68 9 -60 2 -99 20 -63 30 10 2 22 1 28 -5 5 -5 20 -4 38 2 l29 11
-25 19 c-14 11 -31 20 -39 20 -11 0 -11 3 -1 15 10 12 9 15 -6 16 -17 0 -17 1
1 9 15 5 20 16 19 36 -2 43 -3 44 -19 38 -8 -4 -22 0 -31 7 -14 12 -14 14 0
19 11 3 13 9 6 20 -8 12 -13 13 -30 2 -22 -14 -27 -3 -7 17 10 11 10 14 0 18
-7 3 -13 12 -14 21 0 12 -3 10 -10 -6 -5 -13 -14 -20 -20 -17 -6 4 -9 0 -7
-11 2 -13 -3 -19 -14 -18 -14 1 -16 -4 -12 -30 3 -17 8 -37 10 -44 3 -10 -3
-12 -25 -7 -23 5 -29 3 -27 -9 1 -9 5 -18 8 -22 4 -3 4 -12 1 -20 -3 -9 2 -14
14 -14 10 0 23 -4 29 -9 5 -5 18 -12 29 -15 11 -3 -5 -3 -35 0 -37 4 -61 12
-74 26 -12 13 -27 18 -42 15 -13 -2 -24 0 -24 5 0 4 -11 6 -24 2 -14 -3 -36 1
-53 10 l-28 15 47 1 c28 0 50 5 55 13 4 8 16 16 26 20 9 3 17 11 17 16 0 11
-55 20 -72 10 -7 -4 -26 -1 -43 7 l-30 14 28 -5 c16 -3 27 -1 27 5 0 6 4 8 10
5 13 -8 71 26 64 37 -3 4 -16 8 -29 8 -30 0 -55 10 -55 21 0 5 6 9 14 9 28 0
26 19 -3 36 -17 10 -27 23 -24 31 3 7 -1 13 -8 13 -9 0 -8 4 3 13 14 10 17 31
9 69 -2 14 -41 -5 -56 -28 -17 -27 -35 -24 -35 7 0 14 7 19 26 19 19 0 25 4
21 14 -3 8 -2 16 3 18 6 2 6 9 0 18 -8 12 -13 13 -30 2 -25 -15 -25 -9 -3 25
17 25 17 27 1 21 -11 -5 -18 -1 -21 10 -4 14 -6 13 -12 -5 -4 -13 -12 -20 -17
-17 -5 3 -8 -2 -6 -12 2 -13 -2 -18 -13 -16 -14 2 -16 -5 -11 -43 5 -48 2 -51
-29 -35 -15 8 -19 7 -19 -5 0 -10 -10 -15 -32 -15 -27 1 -30 2 -15 11 29 17
19 29 -25 29 -37 1 -40 2 -23 12 11 6 22 14 25 18 3 4 15 12 28 19 30 16 29
41 -2 41 -14 0 -28 5 -31 10 -4 6 -13 7 -22 2 -16 -9 -60 -4 -68 8 -2 4 15 7
38 8 31 2 48 9 66 28 19 21 21 28 10 35 -14 9 -22 10 -90 14 -19 1 -44 7 -55
14 -16 11 -13 12 21 8 33 -4 46 0 75 24 18 16 31 32 27 36 -4 3 -33 6 -65 6
-31 0 -49 2 -39 4 9 2 17 8 17 13 0 4 8 6 18 4 17 -4 69 32 60 41 -3 3 -19 7
-37 9 -40 4 -67 26 -33 26 30 0 28 24 -3 38 -14 6 -25 18 -25 26 0 8 -6 17
-12 19 -8 3 -6 6 5 6 14 1 17 9 15 41 -1 33 -5 39 -22 37 -17 -2 -21 4 -20 26
1 23 -3 27 -24 27 -20 0 -23 3 -14 12 16 16 15 28 -3 28 -8 0 -15 5 -15 10 0
6 -4 10 -10 10 -5 0 -10 -7 -10 -15 0 -8 -7 -15 -15 -15 -9 0 -12 -6 -9 -15 4
-9 0 -15 -9 -15 -13 0 -15 -10 -13 -45 2 -43 -5 -57 -19 -35 -3 6 -10 10 -16
10 -13 0 -11 -34 3 -48 9 -9 9 -12 0 -12 -19 0 -14 -20 6 -20 9 0 26 -7 36
-15 17 -13 17 -15 4 -15 -9 0 -19 4 -22 9 -5 7 -43 8 -93 2 -18 -2 -16 -21 2
-21 8 0 15 -4 15 -9 0 -5 12 -12 26 -15 30 -8 22 -23 -13 -29 -33 -5 -40 -17
-20 -32 12 -8 14 -15 7 -20 -5 -3 -7 -11 -4 -17 5 -7 2 -9 -7 -6 -8 3 -23 2
-34 -2 -18 -6 -18 -8 5 -22 14 -8 37 -22 53 -32 39 -24 33 -36 -18 -36 -51 0
-60 -18 -23 -44 22 -16 22 -16 -12 -16 l-35 -1 30 -25 c17 -13 38 -23 48 -20
11 3 17 0 14 -7 -2 -7 -26 -18 -53 -26 -61 -17 -60 -16 -38 -38 13 -14 33 -18
78 -17 54 0 57 -1 29 -9 -18 -6 -33 -16 -33 -23 0 -10 -16 -14 -61 -14 -55 0
-63 -3 -87 -30 -32 -37 -42 -38 -42 -5 0 20 5 25 26 25 22 0 24 3 15 14 -10
11 -9 15 3 18 11 2 13 7 6 18 -8 12 -13 13 -30 2 -24 -15 -25 -9 -4 24 15 22
15 24 0 18 -11 -4 -16 -1 -16 12 0 19 -15 10 -15 -9 -1 -7 -6 -11 -13 -10 -14
4 -16 -13 -2 -22 6 -3 9 -14 9 -23 -1 -15 -2 -15 -6 -1 -2 11 -11 15 -22 12
-15 -4 -17 -11 -11 -44 7 -40 7 -40 -20 -34 -22 5 -28 3 -26 -9 1 -9 5 -18 8
-21 3 -4 4 -15 1 -26 -4 -14 -14 -19 -42 -19 -29 1 -33 3 -18 11 29 17 19 29
-23 29 -22 0 -40 5 -40 11 0 5 4 8 9 5 4 -3 19 4 32 15 13 11 30 24 38 29 18
10 5 30 -19 30 -10 0 -22 5 -25 10 -4 7 -12 7 -25 0 -13 -7 -27 -6 -47 2 -28
12 -28 13 19 16 39 2 51 8 68 32 20 28 20 29 2 35 -11 3 -42 7 -69 9 -28 2
-59 9 -69 15 -16 8 -11 10 28 11 28 0 50 5 55 13 4 8 16 16 26 20 9 3 17 11
17 16 0 11 -57 20 -67 10 -10 -10 -53 0 -53 12 0 5 7 6 15 3 8 -4 15 -1 15 6
0 6 4 8 10 5 11 -7 70 25 70 37 0 4 -15 8 -34 8 -43 0 -67 25 -34 34 l23 6
-27 21 c-16 11 -28 27 -28 35 0 8 -6 14 -12 14 -9 0 -8 3 2 10 8 5 15 25 16
44 1 32 -2 35 -21 30 -15 -4 -24 0 -28 10 -4 9 -3 16 2 16 4 0 8 7 8 15 0 18
-43 20 -50 3 -4 -8 -6 -9 -6 -2 -1 6 6 17 14 24 19 16 19 34 0 26 -9 -3 -15 0
-15 9 0 8 -4 15 -10 15 -5 0 -10 -9 -10 -21 0 -13 -4 -18 -12 -13 -8 5 -9 2
-5 -9 5 -12 1 -17 -13 -17 -17 0 -19 -5 -13 -45 6 -48 3 -51 -28 -35 -16 9
-19 8 -16 -9 2 -11 6 -24 10 -27 4 -4 2 -13 -4 -21 -9 -10 -7 -13 8 -13 10 0
28 -7 39 -15 18 -15 17 -16 -16 -10 -19 4 -44 9 -55 11 -11 2 -26 0 -34 -5
-12 -8 -12 -11 0 -23 24 -23 76 -40 101 -33 16 5 20 4 13 -3 -17 -17 -106 -18
-119 -1 -15 20 -41 13 -61 -18 -14 -20 -19 -23 -26 -12 -16 25 -10 39 17 39
16 0 23 4 18 11 -3 6 -2 14 4 18 7 4 8 12 2 21 -8 13 -13 13 -32 1 -22 -14
-22 -14 -5 12 21 32 21 41 3 34 -9 -4 -16 1 -19 11 -3 14 -6 12 -15 -8 -6 -14
-11 -20 -12 -15 0 6 -4 4 -9 -4 -5 -8 -14 -10 -22 -5 -7 4 -30 7 -50 5 -20 -1
-40 2 -44 8 -4 7 9 11 38 11 34 0 48 5 66 26 18 21 20 28 10 35 -14 9 -22 10
-90 14 -19 1 -44 7 -55 14 -16 11 -13 12 21 8 35 -4 46 0 80 29 l40 34 -30 1
c-16 1 -47 1 -67 0 -22 -2 -38 2 -38 8 0 6 7 8 15 5 8 -4 15 -1 15 6 0 6 4 8
10 5 11 -7 70 25 70 37 0 4 -6 8 -12 9 -43 3 -60 7 -70 17 -9 9 -7 12 10 12
28 0 28 11 0 38 -43 39 -51 52 -33 52 12 0 15 9 13 40 -1 33 -5 39 -22 37 -17
-2 -21 3 -20 26 1 23 -3 27 -24 27 -20 0 -23 3 -14 12 17 17 15 31 -3 24 -9
-3 -15 0 -15 9 0 8 -4 15 -10 15 -5 0 -10 -7 -10 -15 0 -8 -4 -15 -10 -15 -5
0 -10 -7 -10 -15 0 -8 -7 -15 -15 -15 -11 0 -13 -10 -10 -45 4 -42 -5 -59 -20
-35 -3 6 -10 10 -16 10 -12 0 -12 -37 1 -45 5 -3 7 -12 3 -20 -3 -9 1 -15 8
-15 8 0 23 -8 34 -17 19 -15 19 -15 -5 -9 -43 12 -74 15 -97 9 -26 -6 -31 -23
-8 -23 8 0 15 -4 15 -9 0 -5 11 -12 25 -15 32 -8 25 -22 -15 -31 -33 -7 -38
-19 -15 -33 18 -9 10 -43 -9 -41 -6 1 -19 1 -30 0 -15 -1 -16 -4 -6 -16 6 -8
22 -17 33 -21 25 -7 57 -33 57 -46 0 -4 -23 -8 -50 -8 -48 0 -50 1 -46 25 4
20 1 25 -15 25 -16 0 -18 3 -9 19 11 21 -2 37 -20 26 -6 -3 -10 0 -10 7 -1 7
-7 2 -14 -10 l-13 -24 -29 26 -29 25 28 1 c30 0 36 14 10 29 -14 8 -15 11 -4
25 19 22 6 32 -23 18 -18 -8 -26 -8 -28 0 -6 16 -27 1 -38 -26 -8 -18 -9 -19
-9 -2 -1 10 10 31 24 48 14 16 25 36 25 44 0 17 -26 19 -36 3 -4 -7 -11 1 -18
21 -18 55 -36 50 -36 -10 l0 -52 -31 26 c-17 14 -36 26 -42 26 -7 0 -6 4 2 9
8 5 16 26 16 45 2 33 0 36 -19 30 -12 -3 -30 -17 -40 -31 -15 -19 -21 -22 -27
-11 -13 19 -11 39 4 37 28 -3 39 2 33 16 -3 8 -2 15 3 15 4 0 8 7 8 15 0 18
-28 20 -47 3 -8 -8 -7 -3 3 14 21 34 21 42 2 34 -9 -3 -15 0 -15 9 0 8 -4 15
-10 15 -5 0 -10 -9 -10 -21 0 -13 -4 -18 -12 -13 -8 5 -9 2 -5 -9 6 -15 -2
-21 -24 -19 -4 1 -4 -20 -1 -45 5 -42 3 -46 -14 -39 -27 11 -97 14 -110 5 -12
-10 -54 0 -54 12 0 5 7 6 15 3 8 -4 15 -1 15 6 0 6 4 8 10 5 11 -7 70 25 70
37 0 4 -15 8 -34 8 -43 0 -67 25 -34 34 l23 6 -27 21 c-16 11 -28 27 -28 35 0
8 -6 14 -12 14 -7 0 -5 5 5 11 12 7 17 21 15 44 -2 30 -5 34 -24 29 -14 -4
-23 0 -27 10 -4 9 -3 16 2 16 4 0 8 7 8 15 0 9 -10 15 -26 15 -19 0 -22 3 -13
12 17 17 15 31 -3 24 -9 -3 -15 0 -15 9 0 8 -4 15 -10 15 -5 0 -10 -9 -10 -21
0 -13 -4 -18 -12 -13 -8 5 -9 2 -5 -9 6 -16 -4 -22 -27 -18 -4 1 -6 -9 -2 -23
5 -22 3 -24 -21 -22 -16 2 -34 4 -40 5 -21 2 -15 18 10 25 l22 6 -27 23 c-16
13 -28 28 -28 34 0 6 -6 14 -12 16 -8 3 -6 6 5 6 14 1 17 9 15 41 -1 33 -5 39
-22 37 -17 -2 -21 3 -20 26 1 23 -3 27 -24 27 -20 0 -23 3 -14 12 16 16 15 28
-3 28 -8 0 -15 5 -15 10 0 6 -4 10 -10 10 -5 0 -10 -9 -10 -20 0 -13 -5 -18
-15 -14 -11 5 -13 2 -9 -10 4 -11 1 -16 -10 -16 -12 0 -14 -9 -11 -45 4 -42
-5 -59 -20 -35 -3 6 -10 10 -16 10 -13 0 -11 -34 3 -48 9 -9 9 -12 0 -12 -19
0 -14 -20 6 -20 9 0 26 -7 36 -15 23 -17 16 -18 -39 -5 -42 10 -85 4 -85 -11
0 -5 7 -9 15 -9 8 0 15 -4 15 -9 0 -5 11 -12 25 -15 32 -8 25 -22 -15 -31 -37
-8 -38 -20 -2 -39 19 -11 22 -15 10 -16 -10 0 -18 -4 -18 -10 0 -13 -37 -7
-52 8 -8 8 -8 15 -1 24 18 23 11 48 -13 48 -30 0 -42 46 -17 66 10 7 14 14 8
15 -5 1 -14 2 -20 4 -5 1 -23 3 -40 4 -29 2 -29 3 -7 13 12 6 22 20 22 30 0
24 -21 46 -38 40 -7 -2 -10 2 -6 11 3 8 0 18 -5 22 -6 3 -9 11 -6 16 4 5 0 9
-7 9 -8 0 -6 5 5 11 26 15 21 39 -8 39 -14 0 -25 4 -25 10 0 6 -18 7 -45 3
-26 -3 -45 -2 -45 4 0 5 19 10 43 12 23 1 44 6 45 12 2 5 11 16 19 25 23 22 6
32 -67 39 -36 3 -69 11 -75 17 -7 7 0 9 25 5 27 -3 42 1 62 18 15 13 33 25 40
28 28 11 -17 26 -67 22 -43 -4 -46 -3 -25 6 85 38 92 43 73 57 -10 7 -23 10
-30 8 -16 -7 -43 3 -43 15 0 5 6 9 14 9 26 0 28 20 3 31 -30 14 -52 55 -33 62
10 4 13 33 7 70 0 5 -11 7 -23 5 -21 -3 -23 1 -20 30 3 31 2 33 -19 27 -18 -6
-21 -4 -15 10 4 11 0 22 -11 31 -24 18 -33 17 -33 -1 0 -8 -6 -14 -12 -13 -7
2 -12 -5 -12 -14 1 -10 -4 -18 -12 -18 -9 0 -12 -13 -10 -45 2 -43 -5 -57 -19
-35 -14 22 -24 8 -22 -30 1 -22 6 -40 12 -40 6 0 20 -7 31 -16 19 -15 19 -15
-1 -6 -18 8 -41 9 -97 4 -22 -2 -24 -22 -3 -22 8 0 15 -4 15 -9 0 -5 9 -11 20
-14 23 -6 27 -26 5 -28 -29 -3 -33 -4 -42 -12 -4 -5 0 -15 10 -22 12 -8 14
-15 7 -20 -5 -3 -7 -11 -4 -17 4 -6 2 -8 -4 -5 -5 4 -20 3 -33 -1 -22 -8 -22
-9 7 -28 16 -10 38 -24 48 -30 28 -15 31 -34 7 -34 -12 0 -21 6 -21 14 0 8
-13 17 -30 21 -16 4 -30 11 -30 16 0 6 -18 8 -45 3 -41 -6 -45 -5 -45 15 0 12
-6 24 -14 27 -17 7 -10 34 9 34 7 0 15 7 19 15 3 8 15 15 26 15 11 0 20 6 20
13 0 7 10 17 22 22 31 14 35 35 6 35 -13 0 -29 5 -36 12 -9 9 -15 9 -24 0 -16
-16 -28 -15 -28 3 0 21 -17 19 -47 -5 -42 -33 -65 -22 -47 24 5 12 10 13 31 3
19 -8 26 -8 33 2 4 8 13 11 18 7 6 -4 16 2 22 13 5 11 22 26 37 33 37 18 40
36 6 44 -15 4 -34 11 -41 17 -9 7 -21 6 -39 -2 -22 -10 -29 -10 -38 2 -5 8
-20 17 -33 21 -12 4 -22 11 -22 16 0 5 6 7 14 4 7 -3 31 2 52 11 l39 16 -34
30 c-19 16 -42 29 -52 29 -12 0 -16 5 -13 15 6 15 -4 19 -36 16 -11 -1 -11 1
3 9 18 12 24 40 7 40 -5 0 -7 7 -4 15 4 8 13 15 20 15 23 0 30 31 10 42 -16 9
-16 11 1 30 16 17 16 21 3 31 -8 7 -14 22 -12 35 4 26 -22 30 -49 7 -15 -14
-18 -14 -35 2 -16 17 -16 18 -1 21 20 4 23 38 5 45 -10 4 -10 7 -1 14 7 5 11
18 10 30 -1 18 -5 20 -25 12 -34 -13 -64 -11 -59 4 2 6 12 11 22 10 12 -1 14
2 7 9 -8 8 -8 17 -1 31 9 15 8 18 -2 12 -9 -6 -10 -3 -5 10 5 15 4 16 -8 6 -8
-7 -21 -9 -27 -5 -7 4 -9 3 -5 -4 3 -6 2 -13 -4 -17 -6 -3 -10 4 -10 18 0 29
-23 52 -44 44 -10 -4 -14 -17 -11 -41 3 -37 -3 -44 -22 -25 -6 6 -16 8 -22 5
-14 -9 -14 -43 -1 -51 6 -4 5 -11 -3 -20 -8 -9 -16 -10 -24 -3 -29 23 -44 -22
-19 -55 10 -13 11 -28 5 -55 -5 -22 -4 -41 2 -48 18 -22 -7 -24 -39 -3 -50 30
-60 26 -60 -26 1 -28 6 -45 13 -45 7 0 18 -6 24 -14 9 -11 7 -15 -9 -19 -32
-8 -25 -37 9 -37 15 0 41 -10 56 -22 18 -14 43 -22 66 -23 20 0 35 -3 32 -7
-9 -15 -74 -8 -114 13 -32 16 -44 18 -55 8 -11 -9 -19 -8 -39 5 -30 20 -51 20
-58 2 -3 -8 -18 -16 -34 -18 -38 -4 -36 -31 4 -42 17 -6 34 -18 37 -29 3 -13
10 -17 24 -13 13 5 22 1 26 -10 4 -10 13 -14 26 -11 11 3 20 2 20 -2 0 -13
-39 -30 -59 -24 -13 3 -21 1 -21 -7 0 -8 -8 -10 -21 -7 -30 8 -81 -12 -106
-42 -12 -14 -22 -21 -23 -14 0 6 -3 19 -7 29 -5 13 -3 16 9 12 21 -9 36 3 42
35 4 24 2 27 -22 27 -20 0 -23 3 -14 12 16 16 15 28 -3 28 -8 0 -15 5 -15 10
0 6 -4 10 -10 10 -5 0 -10 -9 -10 -21 0 -13 -4 -18 -12 -13 -8 5 -9 2 -5 -9 5
-12 1 -17 -13 -17 -11 0 -20 5 -20 10 0 6 5 10 10 10 16 0 12 30 -5 36 -12 5
-13 9 -4 21 21 24 -6 41 -31 18 -18 -17 -21 -17 -45 -1 -30 20 -32 36 -5 36
23 0 26 10 8 28 -9 9 -9 15 0 24 22 22 13 28 -35 25 -39 -2 -50 -7 -60 -27
-10 -19 -13 -21 -13 -7 0 10 11 30 25 45 27 29 33 62 12 62 -7 0 -18 -5 -25
-12 -9 -9 -12 -6 -12 13 0 14 -9 34 -20 44 -20 18 -20 17 -21 -16 -1 -19 -1
-42 0 -51 3 -22 -12 -23 -29 -3 -7 8 -16 15 -21 15 -13 0 -11 -37 1 -45 8 -5
7 -11 -1 -21 -16 -19 -39 -18 -39 2 0 13 -6 15 -27 10 -16 -4 -55 -9 -88 -11
-33 -2 -47 -1 -32 2 19 3 27 9 23 18 -2 7 2 16 10 19 9 3 13 10 9 15 -3 5 -1
12 5 16 24 15 -5 22 -82 18 -78 -3 -81 -2 -48 10 19 8 36 21 38 30 2 10 10 17
18 17 8 0 17 7 20 15 4 8 12 15 18 15 13 0 56 41 56 53 0 12 -58 37 -85 37
-15 0 -24 4 -20 10 3 6 0 10 -9 10 -8 0 -16 6 -18 12 -3 9 -12 8 -33 -6 -31
-21 -117 -19 -138 3 -9 10 -5 12 18 10 17 -2 61 1 98 5 59 7 70 12 77 32 5 13
23 35 39 50 17 15 28 31 25 36 -11 17 -80 39 -111 35 -25 -4 -32 -2 -36 14 -5
20 -17 19 -65 -4 -17 -8 -28 -8 -42 1 -11 7 -27 12 -35 12 -9 0 -13 5 -10 10
8 13 58 13 72 -1 11 -11 53 7 53 23 0 5 6 8 14 8 8 0 16 6 19 14 3 8 16 16 29
18 13 2 22 9 21 16 -2 6 2 12 8 12 13 0 39 25 39 39 0 6 -11 13 -25 17 -14 3
-25 10 -25 14 0 4 -7 11 -16 14 -8 3 -13 2 -10 -3 3 -5 -1 -11 -9 -15 -37 -14
-25 46 13 64 22 9 28 9 37 -4 8 -10 16 -12 26 -5 12 7 12 9 -2 9 -9 0 -16 7
-16 15 0 8 7 15 15 15 9 0 13 -3 9 -6 -9 -10 30 -47 42 -39 6 3 9 11 5 16 -3
5 -11 6 -17 2 -9 -5 -9 -3 -1 8 7 8 14 23 17 34 5 21 5 22 11 -37 0 -7 8 -13
16 -13 8 0 18 -7 22 -15 4 -10 7 -6 7 13 1 19 -4 27 -16 28 -14 0 -12 3 5 10
14 5 20 13 16 20 -5 8 -3 9 5 4 7 -4 11 -16 8 -26 -3 -11 0 -19 7 -19 6 0 18
-9 26 -20 11 -15 17 -17 29 -7 12 9 13 9 7 0 -5 -9 -2 -11 8 -7 8 3 16 -2 19
-13 4 -14 5 -14 6 5 0 12 5 22 10 22 5 0 17 3 26 6 9 4 15 3 14 -2 -5 -27 5
-34 11 -9 l8 30 1 -32 c1 -23 6 -33 17 -33 19 0 46 -25 36 -35 -4 -3 6 -3 21
0 21 6 32 2 46 -14 13 -14 25 -19 37 -15 13 5 11 -1 -9 -19 -15 -15 -24 -27
-18 -27 5 0 13 5 17 11 3 6 17 8 29 5 13 -3 27 -2 30 4 3 5 -2 10 -11 10 -15
0 -16 2 -5 13 11 10 14 9 18 -1 4 -10 8 -10 21 0 15 12 16 11 4 -4 -16 -20 -6
-46 11 -29 15 15 27 14 27 -4 0 -8 5 -15 10 -15 6 0 10 5 10 11 0 6 7 8 16 5
9 -4 24 -1 32 6 13 11 15 10 9 -5 -4 -10 -7 -20 -7 -23 0 -2 -8 -1 -17 2 -14
5 -15 4 -4 -4 14 -10 48 -5 57 9 9 15 34 10 34 -7 0 -8 5 -12 10 -9 5 3 10 17
10 31 0 16 4 23 11 18 6 -4 8 -20 5 -39 -5 -24 -1 -38 13 -56 11 -13 20 -19
21 -12 0 6 -6 14 -12 16 -10 4 -10 8 1 15 11 8 11 10 0 15 -8 3 1 6 19 6 18 1
32 -4 32 -10 0 -21 34 -38 77 -39 58 0 73 -8 74 -39 1 -17 3 -20 6 -8 5 19 19
23 25 6 3 -8 10 -5 21 6 10 9 21 14 25 11 3 -4 0 -11 -7 -15 -7 -5 -10 -14 -7
-20 4 -6 11 -9 16 -6 4 3 6 -5 2 -17 -5 -22 -4 -22 15 -5 11 9 33 17 49 16 16
0 23 -3 17 -6 -23 -9 -14 -21 22 -27 19 -4 35 -11 35 -15 0 -4 14 -8 30 -9 26
-1 30 3 30 24 0 17 -4 23 -12 18 -7 -4 -8 -3 -4 4 13 21 38 1 32 -24 -5 -17
-2 -24 9 -24 8 0 15 -5 15 -11 0 -6 -12 -10 -27 -9 -44 3 -50 0 -23 -12 14 -6
31 -10 39 -9 7 1 10 -2 6 -8 -3 -6 -1 -12 4 -12 6 -1 17 -2 24 -3 6 -1 23 2
37 6 18 7 27 5 36 -6 6 -9 13 -13 16 -10 3 2 3 -6 1 -19 -3 -16 1 -26 11 -30
13 -5 14 0 9 26 l-6 32 22 -22 c12 -13 21 -26 20 -29 -2 -12 26 -24 44 -18 12
4 17 0 18 -13 0 -16 1 -16 9 2 6 14 9 16 10 5 2 -8 2 -18 2 -22 -1 -3 5 -9 14
-12 8 -3 12 -2 9 4 -3 6 1 10 9 10 9 0 16 -7 16 -15 0 -27 22 -53 42 -47 10 2
18 9 18 14 0 6 -9 8 -19 5 -14 -3 -18 -1 -14 9 5 14 44 20 41 7 -1 -5 2 -20 6
-35 8 -28 26 -39 26 -15 0 7 3 8 8 2 4 -6 21 -12 37 -14 17 -1 32 -5 34 -7 5
-4 -57 -8 -74 -4 -5 1 -6 -2 -2 -7 5 -4 21 -8 35 -8 18 0 30 -7 37 -22 5 -12
18 -24 28 -27 18 -4 17 -3 -3 19 -14 15 -18 25 -11 30 6 3 11 1 11 -5 0 -6 5
-8 10 -5 11 7 40 -18 40 -34 0 -6 -4 -11 -10 -11 -5 0 -10 -4 -10 -10 0 -5 7
-10 15 -10 8 0 15 7 15 15 0 8 6 15 13 15 19 0 42 -18 34 -27 -5 -4 -12 -1
-17 7 -5 8 -12 11 -16 7 -9 -8 16 -38 26 -32 5 3 14 -1 22 -8 15 -15 58 -18
55 -4 -1 5 4 12 11 14 8 3 10 -1 6 -11 -4 -11 -1 -16 10 -16 9 0 16 -7 16 -15
0 -9 6 -12 15 -9 17 7 19 -4 6 -25 -5 -8 -14 -10 -22 -6 -12 7 -12 6 -1 -6 11
-12 15 -11 28 5 8 11 14 29 14 40 0 17 2 18 9 7 6 -9 6 -22 0 -33 -12 -23 3
-24 25 -2 16 15 41 10 31 -7 -3 -5 0 -6 8 -3 9 3 17 -3 21 -18 l7 -23 9 23
c12 27 20 29 13 2 -3 -11 0 -20 6 -20 6 0 11 9 11 20 0 26 12 25 29 -1 11 -19
11 -21 -1 -16 -11 4 -15 -3 -15 -26 0 -18 2 -27 4 -20 3 7 10 10 18 7 7 -3 15
0 18 8 2 7 2 1 0 -14 -3 -20 0 -28 10 -28 20 0 31 31 15 41 -7 4 -9 11 -5 16
10 10 28 -18 22 -34 -3 -8 4 -13 18 -13 16 0 18 3 8 9 -9 6 -10 11 -2 15 13 8
26 -18 16 -34 -3 -5 -2 -10 4 -10 5 0 8 -9 6 -20 -2 -11 0 -20 6 -20 9 0 13
14 10 37 -1 6 3 14 9 18 6 4 7 -1 3 -11 -4 -12 -3 -15 5 -10 8 5 10 2 6 -8 -3
-9 -1 -16 5 -16 6 0 11 4 11 9 0 5 8 12 18 15 9 3 4 -5 -13 -20 -25 -23 -26
-26 -7 -20 17 6 21 4 16 -8 -3 -9 -1 -16 6 -16 6 0 8 5 5 10 -3 6 -2 10 4 10
5 0 13 -4 16 -10 3 -5 16 -10 28 -9 12 0 16 3 10 6 -7 2 -13 13 -13 24 0 33
30 10 31 -25 1 -30 1 -30 9 -6 8 24 15 11 10 -19 -1 -12 1 -13 13 -3 12 10 16
9 20 -8 4 -14 0 -20 -11 -21 -14 0 -14 -2 -2 -6 8 -3 21 -12 28 -21 7 -9 12
-11 12 -4 0 7 7 9 17 5 13 -5 15 -2 10 11 -5 14 -3 17 8 12 10 -3 15 1 15 14
0 23 12 31 29 20 9 -5 11 -17 7 -34 -5 -19 -3 -26 8 -26 10 0 13 6 10 15 -7
18 7 20 25 3 10 -11 15 -9 28 7 12 16 14 16 10 3 -3 -10 -2 -20 3 -23 10 -6
13 5 11 35 0 8 6 2 14 -15 9 -19 14 -24 15 -12 0 10 7 17 18 16 10 0 12 -3 5
-6 -7 -2 -13 -11 -13 -18 0 -16 59 -26 82 -14 13 7 17 4 21 -19 3 -22 4 -21 6
9 0 21 8 42 19 50 15 12 15 12 5 -1 -13 -17 -15 -90 -2 -90 4 0 6 7 3 15 -4 9
0 15 10 15 11 0 16 -9 16 -27 0 -20 7 -31 26 -40 22 -10 24 -10 19 8 -4 11 0
26 9 35 15 14 16 13 17 -8 0 -18 4 -14 15 16 7 21 11 42 8 47 -3 5 0 9 7 9 7
0 9 -10 6 -26 -4 -22 -1 -25 15 -21 15 4 19 1 18 -16 -4 -41 0 -47 28 -47 24
1 25 2 10 14 -19 14 -25 42 -7 30 6 -3 15 0 20 7 4 7 11 10 15 6 4 -3 1 -13
-6 -22 -8 -10 -9 -15 -1 -15 17 0 13 -28 -4 -33 -11 -4 -11 -5 2 -3 12 1 20
14 26 44 4 23 12 42 17 42 5 0 7 -7 4 -15 -4 -9 0 -15 10 -15 9 0 16 -5 16
-11 0 -6 -6 -9 -14 -6 -11 4 -14 -3 -13 -29 2 -35 17 -49 17 -16 0 11 9 27 20
37 11 10 20 15 20 10 0 -4 7 -1 17 6 13 11 17 11 20 2 3 -7 13 -13 23 -13 10
0 20 6 23 13 2 6 8 9 12 5 4 -4 3 -13 -2 -20 -13 -17 -1 -60 17 -66 13 -3 13
-2 0 7 -13 9 -13 11 3 11 9 0 17 5 17 12 0 20 13 -1 15 -24 2 -25 25 -38 25
-14 0 9 5 16 10 16 6 0 10 -9 10 -20 0 -11 3 -20 6 -20 8 0 30 23 37 40 4 8 5
3 2 -11 -4 -22 1 -27 30 -39 19 -8 35 -18 35 -22 0 -5 -4 -6 -10 -3 -6 3 -7
-1 -3 -10 4 -11 8 -13 13 -6 4 8 15 9 31 3 18 -7 27 -5 37 7 11 14 12 13 10
-9 -2 -14 -9 -24 -16 -23 -6 2 -12 -2 -12 -7 0 -6 7 -10 15 -10 9 0 18 -6 21
-14 3 -8 13 -17 22 -21 14 -5 14 -4 -1 13 -9 10 -16 32 -16 48 1 21 3 23 6 9
6 -24 23 -44 23 -27 0 7 9 12 20 12 13 0 20 7 20 20 0 11 -7 20 -15 20 -13 0
-14 4 -5 21 9 16 17 19 40 14 16 -3 31 -2 35 4 3 7 -3 11 -17 11 -51 0 -55 2
-52 32 3 24 1 26 -10 16 -7 -7 -13 -17 -11 -23 1 -5 0 -7 -2 -2 -7 11 -25 8
-43 -8 -10 -9 -25 -13 -34 -9 -26 10 -18 23 19 30 20 3 40 15 46 26 10 18 9
19 -13 7 -34 -18 -136 -18 -143 1 -9 22 33 47 68 41 5 -1 6 3 2 9 -3 5 -26 10
-49 10 -27 0 -48 6 -56 15 -7 8 -11 15 -9 16 2 0 13 2 24 3 31 4 65 17 65 24
0 4 -13 7 -28 8 -48 2 -82 14 -82 29 0 10 11 15 35 15 19 0 35 5 35 10 0 6
-10 10 -23 10 -23 0 -47 17 -47 32 0 4 14 8 31 8 19 0 28 4 23 11 -3 6 -17 8
-29 5 -14 -4 -25 -1 -28 7 -3 7 -6 5 -6 -5 -1 -11 -6 -15 -16 -12 -10 4 -13
13 -9 27 6 20 6 20 -21 -1 -17 -14 -32 -19 -39 -13 -6 4 -28 11 -49 15 -41 8
-46 29 -9 34 38 6 24 22 -19 22 -45 0 -50 19 -8 31 24 7 24 7 -3 8 -27 1 -50
20 -26 22 7 1 2 4 -11 8 -35 10 -35 24 -1 39 40 18 38 32 -4 32 -40 0 -66 8
-66 21 0 5 9 9 21 9 25 0 59 17 59 30 0 6 -17 10 -37 10 -36 1 -73 18 -73 35
0 4 14 5 30 3 18 -3 35 1 41 9 9 10 5 13 -19 13 -26 0 -68 28 -46 31 5 1 14 2
19 4 6 1 21 3 35 3 35 3 13 20 -30 23 -19 2 -42 -1 -49 -6 -11 -6 -13 -4 -8 7
8 23 -2 29 -27 13 -26 -16 -120 -24 -123 -10 -1 6 -12 12 -24 15 -26 6 -38 30
-15 30 9 0 16 5 16 10 0 6 7 10 15 10 8 0 15 5 15 10 0 6 -15 10 -34 10 -40 0
-66 8 -66 21 0 5 9 9 21 9 25 0 59 17 59 30 0 6 -13 10 -30 10 -34 0 -80 19
-80 33 0 5 14 7 30 5 20 -3 35 1 46 13 15 16 14 17 -13 13 -16 -2 -37 2 -48
10 -18 13 -16 14 23 21 40 6 57 20 30 23 -7 1 -29 3 -48 5 -19 2 -38 0 -41 -6
-4 -5 -7 2 -7 15 1 22 4 24 47 21 33 -2 42 0 31 7 -8 5 -28 10 -45 10 -29 1
-29 2 -7 11 13 5 21 13 17 18 -3 5 -1 12 5 16 15 9 12 35 -4 35 -8 0 -16 -7
-20 -15 -3 -8 -12 -15 -21 -15 -8 0 -15 7 -15 15 0 8 -8 15 -17 14 -11 0 -13
-3 -5 -6 23 -9 12 -23 -13 -17 -20 5 -24 3 -19 -10 3 -9 17 -19 31 -22 13 -4
22 -11 20 -18 -4 -11 -19 -12 -72 -2 -29 5 -29 5 -10 -10 12 -9 33 -14 53 -12
17 2 32 1 32 -2 0 -9 -44 -32 -56 -29 -5 1 -18 1 -29 0 -20 -2 -20 -2 -1 -16
11 -8 28 -15 39 -15 10 0 15 -5 11 -11 -3 -6 -17 -8 -31 -5 -15 4 -29 1 -39
-9 -13 -12 -13 -15 -1 -15 17 0 49 -34 40 -43 -3 -4 -17 -7 -30 -7 -27 0 -29
-8 -5 -26 15 -12 14 -13 -13 -14 -25 -1 -27 -2 -13 -11 10 -5 24 -9 30 -8 37
4 41 -3 13 -21 -48 -32 -175 -24 -175 11 0 6 12 9 28 8 30 -4 55 8 47 21 -3 4
-14 6 -25 3 -19 -5 -50 11 -50 26 0 3 14 6 31 7 46 2 56 19 12 22 -20 2 -41 5
-46 9 -5 3 -13 0 -17 -7 -4 -6 -7 11 -7 39 1 28 -1 52 -4 55 -2 2 -19 7 -36
11 -28 5 -32 4 -27 -9 3 -9 17 -19 29 -22 16 -4 23 -13 22 -27 -2 -30 -25 -46
-66 -47 -29 0 -32 -2 -21 -15 7 -8 27 -15 44 -15 28 -1 29 -2 12 -12 -14 -8
-24 -8 -36 0 -10 6 -34 14 -54 17 -43 9 -46 21 -8 37 l27 12 -38 5 c-42 7 -50
23 -15 32 l23 6 -25 4 c-14 3 -24 10 -23 16 1 6 -9 14 -22 17 -27 7 -34 26
-10 26 8 0 15 5 15 10 0 6 5 9 11 8 6 -2 14 3 16 10 4 11 -17 17 -41 13 -17
-4 -56 9 -56 18 0 5 18 11 40 15 26 4 40 11 40 21 0 13 -25 20 -52 16 -16 -2
-58 19 -58 30 0 6 12 9 28 8 29 -3 52 6 52 22 0 5 -10 7 -22 4 -13 -3 -32 1
-42 8 -19 14 -17 15 22 22 64 11 49 32 -19 26 -8 -1 -23 7 -32 17 -16 17 -15
18 31 15 34 -2 43 0 32 7 -8 5 -28 10 -45 11 -16 1 -23 3 -14 6 15 4 24 20 34
61 5 17 -22 15 -29 -3 -3 -8 -12 -15 -21 -15 -8 0 -15 7 -15 15 0 8 -8 15 -17
14 -11 0 -13 -3 -5 -6 21 -8 13 -20 -11 -16 -35 7 -31 -25 5 -32 27 -6 36 -19
20 -29 -4 -3 -26 -1 -47 4 -49 11 -56 6 -18 -13 18 -10 36 -12 50 -6 13 5 23
6 23 2 0 -14 -38 -32 -68 -33 -30 0 -32 -2 -18 -15 8 -8 24 -15 36 -15 12 0
18 -4 15 -11 -4 -6 -19 -7 -35 -4 -39 9 -47 -11 -16 -36 30 -24 26 -39 -10
-39 -28 0 -31 -8 -6 -26 10 -8 12 -13 5 -14 -7 0 -13 -5 -13 -10 0 -6 6 -10
13 -9 44 6 50 -2 14 -21 -44 -24 -58 -25 -51 -6 4 11 -5 16 -42 18 -47 3 -77
28 -34 28 26 0 60 17 60 30 0 6 -13 10 -29 10 -38 0 -81 16 -81 31 0 6 12 9
28 8 29 -4 55 8 47 20 -2 5 -15 6 -28 4 -13 -3 -29 2 -35 10 -11 12 -7 16 22
21 48 9 52 21 9 24 -20 2 -45 9 -57 17 -20 15 -20 15 4 16 14 1 36 1 50 0 24
0 24 0 -3 10 -18 7 -26 16 -23 25 4 10 -3 14 -21 14 -31 0 -24 12 8 14 13 1
23 8 25 19 3 21 -22 23 -30 2 -3 -8 -10 -15 -15 -15 -17 0 -18 34 -2 54 15 18
15 18 -6 7 -13 -6 -23 -16 -23 -22 0 -6 -11 -9 -25 -7 -14 2 -25 8 -25 13 1 6
9 9 19 7 11 -2 25 8 36 25 12 17 13 24 4 16 -8 -6 -25 -13 -39 -15 -20 -2 -24
1 -22 15 2 10 -2 17 -10 16 -46 -6 -51 12 -8 28 51 19 36 38 -26 34 -11 -1
-27 5 -34 13 -11 14 -8 16 18 16 17 0 38 7 47 16 20 20 19 21 -30 27 -51 7
-76 17 -70 27 3 5 15 7 27 5 11 -3 32 5 47 17 l26 21 -35 -7 c-24 -4 -42 -1
-55 8 -17 13 -16 14 23 21 71 12 56 33 -19 26 -9 -1 -22 5 -29 14 -11 13 -7
15 31 15 l44 0 -25 18 c-26 18 -37 42 -20 42 13 0 13 37 1 45 -6 3 -15 -4 -21
-15 -12 -23 -40 -27 -40 -5 0 8 -8 15 -17 14 -11 0 -13 -3 -5 -6 24 -9 12 -23
-12 -13 -21 8 -24 6 -23 -10 1 -12 11 -22 29 -25 49 -11 32 -28 -23 -23 -45 5
-49 4 -35 -10 8 -8 29 -15 46 -14 27 1 29 -2 19 -14 -7 -8 -19 -14 -28 -13 -9
1 -24 1 -35 0 -29 -2 0 -31 31 -31 15 0 22 -4 17 -11 -3 -6 -17 -8 -29 -5 -26
7 -55 -1 -55 -15 0 -5 6 -9 13 -9 18 0 49 -34 40 -43 -3 -4 -20 -7 -37 -7
l-31 0 25 -20 25 -20 -30 0 c-26 -1 -28 -2 -12 -11 10 -6 25 -8 33 -5 11 4 14
1 12 -11 -2 -10 -18 -21 -36 -27 -56 -16 -37 -32 31 -27 15 1 27 -2 27 -7 0
-17 -48 -42 -80 -42 -44 0 -37 -16 15 -30 73 -20 68 -43 -8 -43 -37 0 -39 -1
-22 -13 10 -8 25 -14 32 -14 18 0 16 -17 -3 -24 -24 -9 -54 -7 -54 3 0 5 -10
11 -22 13 -33 5 -32 22 2 35 33 12 40 32 13 34 -10 0 -31 2 -47 2 -34 2 -49
27 -16 27 26 0 60 17 60 30 0 6 -13 10 -29 10 -38 0 -81 16 -81 31 0 6 12 9
28 8 15 -2 33 0 40 5 16 10 6 27 -13 20 -16 -6 -60 15 -50 24 6 7 10 7 50 10
14 2 16 5 8 13 -14 14 -76 19 -84 6 -4 -5 -7 2 -6 15 0 22 3 24 46 21 41 -2
43 -1 21 9 -14 6 -34 11 -45 10 -14 0 -15 1 -4 4 21 6 43 74 24 74 -7 0 -15
-7 -19 -15 -3 -8 -12 -15 -21 -15 -8 0 -15 7 -15 15 0 8 -8 15 -17 14 -11 0
-13 -3 -5 -6 22 -9 13 -24 -11 -18 -17 5 -24 2 -24 -9 0 -8 13 -18 28 -21 21
-5 27 -12 26 -28 -2 -30 -25 -46 -66 -47 -29 0 -32 -2 -21 -15 7 -8 24 -15 38
-15 20 0 23 -3 14 -12 -9 -9 -17 -9 -34 0 -13 6 -39 13 -58 14 -39 3 -48 21
-12 26 27 4 30 19 2 18 -10 -1 -18 3 -17 7 1 5 -11 15 -28 22 l-30 13 27 10
c28 11 44 30 34 39 -3 4 -22 6 -41 5 -19 -1 -37 3 -40 8 -3 6 1 10 9 10 25 0
66 22 66 36 0 7 -18 15 -41 19 -39 7 -40 8 -19 19 13 6 22 15 21 20 -2 5 3 13
11 18 9 7 5 8 -14 5 -34 -5 -35 0 -7 29 l21 22 -46 7 c-58 9 -70 25 -19 26 21
0 32 3 26 6 -7 2 -13 11 -13 18 0 8 -7 18 -16 23 -11 6 -13 11 -5 16 20 13 12
44 -11 48 -13 2 -22 9 -20 16 2 10 -3 10 -17 2 -25 -13 -31 -13 -31 0 0 6 6
10 13 10 7 0 18 10 25 21 13 20 12 21 -12 15 -27 -7 -66 8 -66 24 0 5 8 9 18
8 32 -2 65 2 59 8 -12 13 -92 22 -98 12 -3 -5 -6 13 -6 41 1 32 6 52 14 55 7
3 13 1 13 -4 0 -6 -5 -10 -11 -10 -5 0 -7 -4 -4 -10 11 -18 23 -10 30 21 8 35
-2 52 -16 26 -12 -20 -35 -23 -42 -4 -3 6 -6 3 -6 -7 -1 -16 -4 -17 -13 -8
-17 17 -39 15 -32 -3 4 -8 17 -18 29 -21 16 -4 23 -13 22 -27 -2 -30 -25 -46
-67 -47 -33 -1 -34 -1 -16 -15 11 -8 28 -15 39 -15 10 0 15 -5 11 -11 -3 -6
-16 -8 -28 -5 -11 3 -28 1 -36 -4 -12 -7 -9 -13 13 -30 15 -12 25 -26 22 -31
-10 -15 -45 -10 -45 6 0 8 -14 17 -35 21 -42 8 -45 20 -7 36 l27 12 -38 5
c-40 6 -51 24 -17 29 27 5 26 19 -2 18 -13 -1 -22 4 -21 10 1 7 -9 15 -22 18
-33 8 -31 19 5 33 45 17 34 43 -14 34 -18 -4 -56 9 -56 19 0 6 9 10 21 10 25
0 59 17 59 30 0 6 -16 10 -36 10 -39 0 -74 15 -74 31 0 6 12 9 28 8 29 -4 52
6 52 22 0 6 -9 8 -20 4 -21 -7 -66 12 -55 23 6 7 11 8 53 10 36 3 25 18 -15
20 -20 2 -41 5 -46 9 -5 3 -13 0 -17 -7 -4 -6 -7 11 -7 39 1 32 6 52 14 55 7
3 13 1 13 -4 0 -6 -5 -10 -11 -10 -5 0 -7 -4 -4 -10 11 -18 23 -10 30 21 8 35
-2 52 -16 26 -12 -21 -39 -23 -39 -2 0 8 -8 15 -17 14 -11 0 -13 -3 -5 -6z
m-28 -373 c0 -5 -9 -12 -20 -15 -11 -3 -20 -11 -20 -16 0 -15 -57 -10 -74 6
-8 8 -20 15 -27 15 -9 0 -8 -4 1 -15 9 -10 9 -15 1 -15 -6 0 -11 -4 -11 -9 0
-4 27 -14 60 -20 33 -7 60 -16 60 -21 0 -8 -90 -3 -99 6 -2 2 -10 -1 -17 -6
-9 -8 -12 0 -11 37 1 26 5 51 9 54 13 9 148 8 148 -1z m-85 -140 c3 -5 -1 -10
-9 -10 -8 0 -18 5 -21 10 -3 6 1 10 9 10 8 0 18 -4 21 -10z m563 -9 c3 -8 -1
-12 -9 -9 -7 2 -15 10 -17 17 -3 8 1 12 9 9 7 -2 15 -10 17 -17z m-733 -23
c14 -11 22 -24 19 -30 -4 -6 -10 -6 -17 1 -6 6 -26 11 -45 11 -36 0 -72 15
-72 30 0 18 90 8 115 -12z m564 -24 c12 -9 6 -12 -29 -16 -35 -3 -49 1 -69 19
l-26 23 32 -6 c17 -3 39 -1 50 4 13 8 19 7 22 -1 2 -7 11 -17 20 -23z m11241
19 c0 -5 -5 -15 -10 -23 -9 -13 -11 -13 -20 0 -15 22 -12 30 10 30 11 0 20 -3
20 -7z m-11005 -43 c-3 -5 -12 -10 -18 -10 -7 0 -6 4 3 10 19 12 23 12 15 0z
m-221 -32 c-28 -15 -39 -16 -50 -7 -22 18 -17 27 19 31 60 6 71 -2 31 -24z
m-594 13 c0 -15 -49 -19 -67 -5 -16 12 -13 13 25 14 23 0 42 -4 42 -9z m630
-60 c0 -12 -29 -23 -41 -15 -5 3 -7 10 -4 15 8 12 45 12 45 0z m11507 -27 c-3
-3 -12 -4 -19 -1 -8 3 -5 6 6 6 11 1 17 -2 13 -5z m-400 -20 c-3 -3 -12 -4
-19 -1 -8 3 -5 6 6 6 11 1 17 -2 13 -5z m218 -34 c3 -6 -4 -10 -17 -10 -22 -1
-22 -1 -5 -15 11 -7 25 -11 33 -8 10 4 12 0 8 -11 -7 -19 -4 -19 -77 -1 -68
16 -83 25 -41 25 16 0 38 7 48 15 23 17 42 19 51 5z m-12166 -25 c16 -17 -63
-29 -90 -14 -34 18 -20 28 33 23 29 -3 54 -7 57 -9z m-219 -50 c15 -19 5 -35
-24 -35 -25 0 -50 -23 -60 -57 -4 -12 -21 -34 -39 -49 l-32 -27 -7 44 c-3 24
-4 52 -1 62 5 19 23 24 23 6 0 -7 12 -8 33 -4 45 10 52 20 26 39 l-23 16 26 0
c15 0 30 5 33 10 9 14 31 12 45 -5z m170 -4 c24 -7 24 -8 5 -18 -21 -11 -58
-3 -70 16 -7 12 26 13 65 2z m12235 -23 c27 1 28 0 8 -8 -27 -11 -123 -1 -123
13 0 6 16 7 43 2 23 -4 56 -7 72 -7z m-10845 -48 c-8 -5 -17 -7 -19 -4 -3 3 1
9 9 14 8 5 17 7 19 4 3 -3 -1 -9 -9 -14z m10845 -40 c3 -5 -1 -10 -10 -10 -9
0 -13 5 -10 10 3 6 8 10 10 10 2 0 7 -4 10 -10z m-10980 -110 c18 -8 17 -9 -7
-9 -16 -1 -28 4 -28 9 0 12 8 12 35 0z m10339 -36 c20 -20 11 -35 -17 -31 -37
5 -49 16 -34 32 16 19 32 18 51 -1z m-139 -30 c19 -15 18 -15 -15 -10 -36 7
-56 26 -38 37 6 4 16 3 22 -2 6 -5 20 -17 31 -25z m-10211 0 c9 -3 16 -10 16
-16 0 -14 -53 -5 -58 10 -4 13 16 16 42 6z m10616 -34 c0 -5 -4 -10 -10 -10
-5 0 -6 -8 -3 -17 5 -13 2 -15 -11 -10 -10 4 -31 7 -47 7 -16 0 -29 5 -29 10
0 6 13 10 29 10 17 0 33 5 36 10 3 6 13 10 21 10 8 0 14 -4 14 -10z m40 0 c0
-5 -8 -10 -17 -10 -15 0 -16 2 -3 10 19 12 20 12 20 0z m-495 -10 c8 -13 -15
-13 -35 0 -12 8 -11 10 7 10 12 0 25 -4 28 -10z m60 0 c-3 -5 -16 -10 -28 -9
-21 0 -21 1 -2 9 28 12 37 12 30 0z m75 -5 c0 -8 -3 -15 -6 -15 -3 0 -12 7
-20 15 -14 13 -13 15 5 15 12 0 21 -6 21 -15z m-10265 -15 c-3 -5 -10 -10 -16
-10 -5 0 -9 5 -9 10 0 6 7 10 16 10 8 0 12 -4 9 -10z m9662 -16 c-3 -3 -12 -4
-19 -1 -8 3 -5 6 6 6 11 1 17 -2 13 -5z m-8677 -14 c0 -5 -8 -10 -17 -10 -15
0 -16 2 -3 10 19 12 20 12 20 0z m-955 -20 c3 -5 1 -10 -4 -10 -6 0 -11 5 -11
10 0 6 2 10 4 10 3 0 8 -4 11 -10z m10585 -12 c0 -5 -20 -8 -45 -8 -25 0 -45
5 -45 10 0 6 19 10 45 8 25 -2 45 -6 45 -10z m-11780 -18 c0 -5 -7 -7 -15 -4
-8 4 -15 8 -15 10 0 2 7 4 15 4 8 0 15 -4 15 -10z m1780 -13 c16 4 21 3 16 -5
-8 -14 -72 -16 -80 -3 -9 14 5 21 24 11 9 -5 27 -6 40 -3z m9678 -4 c-10 -2
-26 -2 -35 0 -10 3 -2 5 17 5 19 0 27 -2 18 -5z m-10011 -29 c-3 -3 -12 -4
-19 -1 -8 3 -5 6 6 6 11 1 17 -2 13 -5z m-1254 -11 c-7 -2 -21 -2 -30 0 -10 3
-4 5 12 5 17 0 24 -2 18 -5z m224 -35 c-3 -8 -6 -5 -6 6 -1 11 2 17 5 13 3 -3
4 -12 1 -19z m11066 5 c-7 -2 -19 -2 -25 0 -7 3 -2 5 12 5 14 0 19 -2 13 -5z
m-11153 -15 c0 -11 -12 -10 -30 2 -12 7 -10 9 8 7 12 0 22 -5 22 -9z m17 -20
c-3 -7 -5 -2 -5 12 0 14 2 19 5 13 2 -7 2 -19 0 -25z m-540 0 c0 -7 -14 -14
-30 -15 -28 -2 -29 -2 -11 12 24 18 41 19 41 3z m680 -4 c-3 -3 -12 -4 -19 -1
-8 3 -5 6 6 6 11 1 17 -2 13 -5z m-17 -24 c0 -5 -5 -10 -11 -10 -5 0 -7 5 -4
10 3 6 8 10 11 10 2 0 4 -4 4 -10z m90 0 c0 -5 -5 -10 -11 -10 -5 0 -7 5 -4
10 3 6 8 10 11 10 2 0 4 -4 4 -10z m10164 2 c2 -4 0 -14 -5 -22 -8 -13 -10
-13 -19 0 -5 8 -10 18 -10 23 0 10 28 9 34 -1z m76 -9 c-8 -3 -18 -11 -22 -17
-9 -14 -22 -1 -13 13 3 6 16 11 28 10 15 0 17 -2 7 -6z m-10140 -38 c0 -8 -4
-15 -10 -15 -5 0 -7 7 -4 15 4 8 8 15 10 15 2 0 4 -7 4 -15z m940 -11 c0 -8
-6 -11 -15 -8 -8 4 -15 12 -15 20 0 8 6 11 15 8 8 -4 15 -12 15 -20z m101 -16
l43 0 -23 -19 c-28 -23 -64 -24 -85 -3 -25 24 -16 54 10 33 7 -5 32 -10 55
-11z m1089 8 c0 -2 -7 -6 -15 -10 -8 -3 -15 -1 -15 4 0 6 7 10 15 10 8 0 15
-2 15 -4z m-1974 -31 c20 -19 5 -19 -20 0 -11 9 -14 15 -7 15 7 0 19 -7 27
-15z m1162 -36 c9 -1 32 0 50 1 38 2 42 -12 7 -28 -31 -14 -98 -16 -76 -3 11
7 9 10 -9 13 -27 3 -40 28 -16 28 9 0 17 6 17 13 1 6 3 4 6 -5 2 -10 12 -18
21 -19z m9172 21 c0 -10 -28 -18 -67 -18 -25 -1 -31 13 -10 21 22 9 77 7 77
-3z m-10270 -14 c0 -2 -7 -6 -15 -10 -8 -3 -15 -1 -15 4 0 6 7 10 15 10 8 0
15 -2 15 -4z m880 -15 c0 -13 -37 -24 -50 -16 -6 4 -8 11 -5 16 8 12 55 12 55
0z m9267 -47 c-3 -3 -12 -4 -19 -1 -8 3 -5 6 6 6 11 1 17 -2 13 -5z m-9887
-34 c0 -5 -5 -10 -11 -10 -5 0 -7 5 -4 10 3 6 8 10 11 10 2 0 4 -4 4 -10z
m857 4 c-3 -3 -12 -4 -19 -1 -8 3 -5 6 6 6 11 1 17 -2 13 -5z m8363 -52 c3 -3
-12 -2 -32 1 -21 3 -38 3 -38 -1 0 -4 -13 -13 -30 -19 -23 -8 -33 -8 -47 3
-16 12 -14 13 19 14 20 0 40 5 43 10 6 10 74 4 85 -8z m-9040 -47 c0 -8 -5
-15 -11 -15 -5 0 -7 5 -4 10 3 6 2 10 -4 10 -5 0 -11 -6 -14 -12 -2 -7 -8 -9
-13 -5 -9 9 13 27 34 27 6 0 12 -7 12 -15z m1055 -26 l20 -21 -55 5 c-63 6
-110 22 -110 37 0 20 123 2 145 -21z m7945 12 c0 -15 -19 -23 -38 -16 -14 5
-14 7 -2 15 19 12 40 13 40 1z m-8870 -41 c0 -5 -4 -10 -10 -10 -5 0 -10 5
-10 10 0 6 5 10 10 10 6 0 10 -4 10 -10z m9180 -6 c0 -19 -41 -33 -96 -34 -89
0 -88 13 3 26 43 6 81 12 86 13 4 0 7 -2 7 -5z m-9107 -11 c-7 -2 -19 -2 -25
0 -7 3 -2 5 12 5 14 0 19 -2 13 -5z m823 -8 c15 -11 16 -15 4 -16 -8 -1 -18
-1 -22 0 -4 0 -5 -6 -2 -14 8 -19 -7 -19 -51 -1 -45 19 -44 34 3 39 20 2 40 4
43 5 3 1 14 -5 25 -13z m-869 -1 c-3 -3 -12 -4 -19 -1 -8 3 -5 6 6 6 11 1 17
-2 13 -5z m1223 -2 c0 -4 -11 -15 -24 -24 -18 -13 -41 -17 -87 -15 -72 2 -87
19 -32 34 44 11 143 15 143 5z m-320 -44 c-25 -9 -36 -5 -26 10 3 6 16 8 28 4
l22 -5 -24 -9z m624 -17 c28 -11 8 -18 -48 -17 -30 1 -51 6 -53 14 -5 14 68
16 101 3z m-355 -17 c18 -4 30 -11 28 -17 -5 -15 -56 -27 -63 -16 -3 5 -9 7
-14 4 -11 -7 -40 5 -40 15 0 8 20 16 46 19 6 0 26 -2 43 -5z m-249 -20 c0 -11
-44 -42 -55 -38 -6 3 -11 13 -12 22 -1 14 7 19 33 20 19 2 34 0 34 -4z m-1366
-28 c24 6 25 5 14 -24 -12 -30 -43 -56 -57 -48 -4 3 -8 24 -9 47 -2 34 0 39
12 30 8 -7 25 -9 40 -5z m1943 -2 c2 -7 -6 -10 -22 -7 -14 3 -25 10 -25 15 0
13 43 6 47 -8z m-1202 -4 c-3 -5 -12 -10 -18 -10 -7 0 -6 4 3 10 19 12 23 12
15 0z m855 -30 c0 -5 -7 -10 -15 -10 -8 0 -15 5 -15 10 0 6 7 10 15 10 8 0 15
-4 15 -10z m310 -20 c12 0 12 -2 -1 -15 -12 -13 -21 -14 -43 -5 -31 12 -25 35
8 26 11 -3 28 -6 36 -6z m7055 0 c4 -6 -6 -10 -22 -11 -15 0 -37 -4 -48 -8
-11 -5 -33 -3 -50 3 l-30 11 40 6 c65 10 103 10 110 -1z m-7982 -25 c-3 -9 -8
-14 -10 -11 -3 3 -2 9 2 15 9 16 15 13 8 -4z m-83 -15 c0 -5 -10 -10 -22 -9
-22 0 -22 1 -3 9 11 5 21 9 23 9 1 1 2 -3 2 -9z m-3 -26 c-3 -3 -12 -4 -19 -1
-8 3 -5 6 6 6 11 1 17 -2 13 -5z m153 -4 c0 -5 -2 -10 -4 -10 -3 0 -8 5 -11
10 -3 6 -1 10 4 10 6 0 11 -4 11 -10z m815 -10 c3 -5 1 -10 -4 -10 -6 0 -11 5
-11 10 0 6 2 10 4 10 3 0 8 -4 11 -10z m7039 1 c10 -16 -21 -20 -41 -6 -17 13
-16 14 9 15 15 0 29 -4 32 -9z m46 -11 c0 -5 -5 -10 -11 -10 -5 0 -7 5 -4 10
3 6 8 10 11 10 2 0 4 -4 4 -10z m-6980 -5 c0 -12 -43 -25 -65 -19 -39 10 -29
21 20 22 25 1 45 -1 45 -3z m-2857 -46 c-7 -40 -80 -52 -138 -24 l-30 15 42
-6 c45 -6 79 7 102 38 17 25 31 11 24 -23z m1967 31 c0 -5 -4 -10 -10 -10 -5
0 -10 5 -10 10 0 6 5 10 10 10 6 0 10 -4 10 -10z m7298 -12 c-6 -17 -70 -27
-99 -15 l-24 10 25 7 c42 13 102 12 98 -2z m342 -36 c0 -2 -10 -12 -22 -23
-24 -20 -68 -26 -68 -9 0 6 -13 10 -30 10 -32 0 -41 16 -12 22 21 5 132 4 132
0z m-9447 -24 c3 -10 7 -10 20 0 25 21 38 6 25 -28 -9 -28 -42 -60 -60 -60 -5
0 -8 23 -8 50 0 46 13 67 23 38z m9127 1 c0 -12 -54 -29 -80 -25 -34 5 -61 17
-56 25 6 8 136 9 136 0z m-7073 -15 c-3 -3 -12 -4 -19 -1 -8 3 -5 6 6 6 11 1
17 -2 13 -5z m543 -19 c0 -8 11 -17 25 -21 14 -3 25 -10 25 -15 0 -14 -9 -11
-41 12 -29 20 -38 39 -19 39 6 0 10 -7 10 -15z m-526 -34 c-8 -9 -22 12 -17
26 6 15 7 14 13 -3 4 -10 6 -21 4 -23z m56 29 c0 -5 -2 -10 -4 -10 -3 0 -8 5
-11 10 -3 6 -1 10 4 10 6 0 11 -4 11 -10z m-1290 -62 c0 -4 -11 -8 -25 -8 -26
0 -29 7 -19 35 6 14 8 14 25 -1 11 -9 19 -21 19 -26z m8250 23 c24 -7 24 -8
-9 -15 -25 -6 -37 -4 -49 8 -15 15 -14 16 8 15 14 -1 36 -4 50 -8z m-8528 -21
c-24 -15 -38 -18 -50 -10 -15 8 -14 9 5 10 12 0 25 5 28 10 3 6 16 10 28 10
19 0 17 -3 -11 -20z m1628 10 c0 -5 -4 -10 -10 -10 -5 0 -10 5 -10 10 0 6 5
10 10 10 6 0 10 -4 10 -10z m-74 -29 c-4 -5 -13 -8 -21 -5 -11 5 -12 9 -2 19
13 15 33 3 23 -14z m925 19 c8 -6 6 -11 -8 -18 -11 -6 -25 -7 -33 -2 -8 5 -24
3 -40 -5 -21 -11 -31 -11 -58 0 -17 8 -32 19 -32 24 0 12 152 12 171 1z
m-3256 -20 c3 -5 -1 -10 -10 -10 -9 0 -13 5 -10 10 3 6 8 10 10 10 2 0 7 -4
10 -10z m382 -19 c1 -14 -3 -18 -13 -14 -15 6 -18 16 -7 26 11 12 19 8 20 -12z
m2074 -22 c-5 -13 -10 -19 -10 -12 -1 15 10 45 15 40 3 -2 0 -15 -5 -28z m79
21 c0 -13 -11 -13 -30 0 -12 8 -11 10 8 10 12 0 22 -4 22 -10z m5920 -10 c-8
-5 -17 -7 -19 -4 -3 3 1 9 9 14 8 5 17 7 19 4 3 -3 -1 -9 -9 -14z m-6913 -25
c-4 -8 -11 -15 -17 -15 -14 0 -13 27 3 33 16 6 21 1 14 -18z m933 -12 c-14
-17 -20 -20 -17 -10 4 10 7 23 7 28 0 6 5 7 10 4 6 -3 10 -1 10 6 0 7 3 10 6
6 4 -3 -4 -19 -16 -34z m745 23 c19 -14 19 -15 -8 -27 -15 -7 -27 -16 -27 -22
0 -5 -14 -6 -32 -3 -18 4 -40 8 -49 9 -10 1 -16 10 -16 25 0 20 3 23 26 19 14
-3 35 -1 46 3 29 12 39 12 60 -4z m-645 -6 c0 -5 -4 -10 -10 -10 -5 0 -10 5
-10 10 0 6 5 10 10 10 6 0 10 -4 10 -10z m-1989 -20 c25 -14 24 -30 -2 -30
-16 0 -20 -5 -16 -20 4 -17 2 -18 -14 -9 -10 5 -19 16 -19 24 0 8 -5 15 -12
15 -13 0 22 29 35 30 5 0 17 -5 28 -10z m2014 0 c3 -5 1 -10 -4 -10 -6 0 -11
5 -11 10 0 6 2 10 4 10 3 0 8 -4 11 -10z m272 -49 c14 -8 10 -9 -19 -8 -22 1
-38 7 -38 14 0 13 29 10 57 -6z m349 -4 c8 3 14 -1 14 -11 0 -9 -6 -16 -14
-16 -8 0 -16 -5 -18 -11 -3 -9 -11 -8 -28 2 l-25 14 23 3 c12 2 22 11 23 20 0
10 3 12 5 5 3 -7 12 -9 20 -6z m5860 0 c14 -14 -11 -27 -52 -27 -28 0 -43 -4
-39 -10 9 -15 -36 -12 -65 5 -22 12 -23 14 -7 20 9 4 23 5 31 2 8 -3 20 1 27
10 10 11 25 14 57 10 23 -2 45 -7 48 -10z m-282 -38 c-7 -13 -31 -11 -40 2 -9
16 18 30 33 17 7 -6 10 -14 7 -19z m-5927 3 c-9 -2 -15 -8 -12 -13 4 -5 1 -9
-4 -9 -6 0 -11 9 -11 19 0 15 5 18 23 13 18 -5 19 -7 4 -10z m-2945 -37 c51
-6 56 -8 44 -21 -12 -11 -24 -12 -59 -4 -66 14 -99 29 -92 40 3 6 14 6 28 0
12 -5 48 -12 79 -15z m3348 15 c0 -5 -2 -10 -4 -10 -3 0 -8 5 -11 10 -3 6 -1
10 4 10 6 0 11 -4 11 -10z m5780 -9 c0 -11 -39 -25 -47 -18 -3 3 -2 10 2 16 8
13 45 15 45 2z m-7465 -11 c3 -5 -1 -10 -9 -10 -9 0 -16 5 -16 10 0 6 4 10 9
10 6 0 13 -4 16 -10z m-1499 -15 c-32 -17 -76 -20 -76 -5 0 5 6 7 14 4 8 -3
17 -1 21 5 3 6 21 11 38 11 l32 0 -29 -15z m1357 8 c-7 -2 -19 -2 -25 0 -7 3
-2 5 12 5 14 0 19 -2 13 -5z m1902 -23 c3 -5 1 -10 -4 -10 -6 0 -11 5 -11 10
0 6 2 10 4 10 3 0 8 -4 11 -10z m114 -3 c-9 -7 -14 -16 -13 -22 7 -20 -13 -38
-32 -30 -18 8 -18 8 -1 12 14 4 16 8 7 18 -16 20 -4 35 28 35 23 -1 25 -2 11
-13z m-2849 -26 c0 -4 -11 -6 -25 -3 -14 2 -25 6 -25 8 0 2 11 4 25 4 14 0 25
-4 25 -9z m2875 -52 c4 -6 5 -12 2 -15 -7 -7 -37 7 -37 17 0 13 27 11 35 -2z
m5149 -30 c-3 -5 -18 -9 -33 -9 -15 0 -32 -5 -38 -11 -12 -12 -33 -4 -33 12 0
5 6 9 13 9 6 0 23 9 37 20 23 17 26 17 42 3 10 -9 15 -20 12 -24z m-5080 15
c5 -14 4 -15 -9 -4 -17 14 -19 20 -6 20 5 0 12 -7 15 -16z m5211 6 c3 -5 -1
-10 -9 -10 -9 0 -16 5 -16 10 0 6 4 10 9 10 6 0 13 -4 16 -10z m-162 -67 c-7
-2 -19 -2 -25 0 -7 3 -2 5 12 5 14 0 19 -2 13 -5z m-7264 -50 c2 -2 -10 -3
-28 -3 -27 0 -30 2 -19 14 10 11 17 11 28 3 8 -6 17 -13 19 -14z m7281 15 c0
-12 -20 -20 -36 -14 -8 3 -13 9 -10 14 6 10 46 10 46 0z m-7302 -54 c13 -9 30
-13 38 -10 10 4 14 1 12 -6 -7 -21 -67 -31 -84 -13 -18 18 -28 19 -56 4 -23
-13 -31 -8 -22 14 3 9 20 18 37 20 18 2 37 5 42 5 6 1 21 -5 33 -14z m7317 -4
c3 -5 -3 -10 -15 -10 -12 0 -18 5 -15 10 3 6 10 10 15 10 5 0 12 -4 15 -10z
m-430 -80 c3 -5 26 -10 51 -10 24 0 44 -4 44 -10 0 -11 -98 -14 -124 -4 -9 3
-16 12 -16 20 0 16 36 19 45 4z m405 0 c12 -8 10 -10 -10 -10 -14 0 -32 5 -40
10 -12 8 -10 10 10 10 14 0 32 -5 40 -10z m-6510 -45 c0 -7 -6 -18 -14 -24
-11 -9 -15 -7 -19 8 -6 23 -3 28 18 28 8 0 15 -6 15 -12z m6165 -26 c-4 -5
-15 -9 -26 -9 -12 0 -17 -4 -13 -11 4 -7 -1 -10 -12 -7 -10 2 -20 10 -22 18
-2 12 7 16 38 17 23 1 38 -2 35 -8z m-195 -19 c0 -6 -17 -18 -37 -26 -21 -9
-46 -21 -57 -26 -12 -6 -22 -6 -29 1 -6 6 -9 12 -6 14 54 36 129 58 129 37z
m-6740 -40 c18 -12 2 -12 -25 0 -13 6 -15 9 -5 9 8 0 22 -4 30 -9z m685 -70
c-3 -5 -16 -10 -28 -9 -20 1 -20 2 3 9 14 4 26 8 28 9 2 1 0 -3 -3 -9z m130 1
c7 -12 -12 -24 -25 -16 -11 7 -4 25 10 25 5 0 11 -4 15 -9z m195 -47 c0 -6 -7
-17 -15 -24 -9 -8 -15 -8 -15 -2 0 6 -3 17 -6 26 -4 11 0 14 15 13 12 -1 21
-6 21 -13z m-154 -42 c-7 -12 -46 -4 -46 9 0 5 7 6 15 3 9 -4 15 -1 15 7 0 10
3 10 11 2 6 -6 8 -16 5 -21z m5584 -21 c0 -10 -9 -21 -20 -24 -11 -3 -20 -1
-20 4 0 5 7 9 16 9 11 0 15 6 11 20 -3 11 -1 18 4 14 5 -3 9 -13 9 -23z
m-5875 -20 c7 -12 -12 -24 -25 -16 -11 7 -4 25 10 25 5 0 11 -4 15 -9z m360
-11 c3 -5 -1 -10 -9 -10 -8 0 -18 5 -21 10 -3 6 1 10 9 10 8 0 18 -4 21 -10z
m6125 -10 c0 -5 -7 -10 -16 -10 -8 0 -12 5 -9 10 3 6 10 10 16 10 5 0 9 -4 9
-10z m-6430 -20 c0 -5 -7 -7 -15 -4 -8 4 -12 10 -9 15 6 11 24 2 24 -11z
m-120 6 c0 -9 -30 -14 -35 -6 -4 6 3 10 14 10 12 0 21 -2 21 -4z m6617 -12
c-3 -3 -12 -4 -19 -1 -8 3 -5 6 6 6 11 1 17 -2 13 -5z m723 -4 c0 -5 -5 -10
-11 -10 -5 0 -7 5 -4 10 3 6 8 10 11 10 2 0 4 -4 4 -10z m-800 -10 c0 -5 -13
-10 -30 -10 -16 0 -30 5 -30 10 0 6 14 10 30 10 17 0 30 -4 30 -10z m34 -5
c-4 -8 -8 -15 -10 -15 -2 0 -4 7 -4 15 0 8 4 15 10 15 5 0 7 -7 4 -15z m556 5
c0 -5 -2 -10 -4 -10 -3 0 -8 5 -11 10 -3 6 -1 10 4 10 6 0 11 -4 11 -10z
m-6575 -9 c7 -12 -12 -24 -25 -16 -11 7 -4 25 10 25 5 0 11 -4 15 -9z m6765
-12 c0 -5 5 -7 12 -3 7 5 8 3 3 -6 -6 -10 -4 -12 8 -7 11 4 14 2 10 -9 -4 -10
0 -12 12 -8 14 6 16 3 10 -15 -6 -21 -5 -22 14 -12 12 7 21 16 21 20 0 5 9 11
20 14 27 7 25 -3 -7 -31 -18 -15 -21 -22 -10 -18 9 3 17 1 17 -3 0 -5 6 -11
14 -14 11 -4 13 0 11 15 -3 16 -2 19 6 11 6 -6 19 -9 28 -6 11 4 10 1 -4 -10
-19 -15 -19 -16 -1 -36 16 -18 17 -21 3 -21 -24 0 -32 -21 -14 -35 18 -13 24
-30 7 -20 -5 3 -7 0 -4 -8 5 -13 -10 -32 -31 -39 -5 -1 -9 -6 -8 -9 3 -10 -57
-17 -62 -8 -3 4 2 9 10 13 23 8 18 31 -9 44 -24 11 -46 58 -22 49 6 -3 12 3
12 14 0 11 -3 19 -7 19 -3 0 -5 12 -3 28 4 35 -12 63 -25 44 -7 -11 -9 -10
-14 3 -4 9 -3 13 3 10 16 -10 12 7 -7 27 -9 11 -11 18 -5 18 7 0 12 -5 12 -11z
m-330 -8 c0 -4 -11 -7 -24 -7 -14 0 -23 3 -21 6 5 9 45 10 45 1z m55 -1 c-3
-5 -12 -10 -18 -10 -7 0 -6 4 3 10 19 12 23 12 15 0z m120 -27 c-6 -18 -17
-39 -23 -45 -15 -15 -16 -45 -2 -53 8 -5 8 -11 0 -20 -8 -10 -7 -14 2 -18 9
-4 8 -6 -2 -6 -9 -1 -20 3 -25 8 -6 6 -19 3 -35 -9 l-24 -18 24 -21 c14 -11
31 -20 38 -21 21 0 13 -16 -9 -17 -32 -3 -43 -18 -25 -35 14 -14 13 -17 -3
-32 -20 -18 -41 -22 -23 -4 18 18 15 26 -18 43 l-31 16 21 34 21 34 -28 14
c-15 8 -33 12 -40 10 -22 -8 -23 16 -1 28 12 7 29 19 38 28 8 10 11 11 6 4 -5
-8 -6 -16 -2 -20 3 -3 6 -1 6 6 0 7 4 10 8 7 21 -13 25 11 5 31 -13 12 -23 18
-23 13 0 -6 -4 -10 -10 -10 -5 0 -10 7 -10 16 0 12 7 15 25 12 13 -3 22 -1 19
3 -3 5 0 17 5 26 10 17 10 17 11 -1 0 -15 3 -16 15 -6 13 10 15 9 15 -11 1
-21 2 -22 13 -8 7 9 22 19 34 23 12 4 20 13 17 20 -3 7 1 13 9 13 11 0 11 -7
2 -34z m320 -22 c-6 -5 -25 10 -25 20 0 5 6 4 14 -3 8 -7 12 -15 11 -17z
m-6055 -16 c0 -7 -6 -18 -14 -24 -11 -9 -15 -7 -19 8 -6 23 -3 28 18 28 8 0
15 -6 15 -12z m-745 -24 c-3 -5 -1 -12 4 -16 6 -3 8 -12 4 -20 -3 -9 1 -15 9
-15 8 0 23 -7 34 -15 18 -15 17 -15 -16 -9 -19 4 -62 8 -95 9 -34 1 -70 7 -80
13 -17 10 -14 11 25 12 32 1 53 8 75 25 30 25 51 33 40 16z m0 -131 c-3 -5
-11 -10 -16 -10 -6 0 -7 5 -4 10 3 6 11 10 16 10 6 0 7 -4 4 -10z m60 0 c-3
-5 -16 -10 -28 -9 -21 0 -21 1 -2 9 28 12 37 12 30 0z m600 0 c-3 -5 -16 -10
-28 -9 -21 0 -21 1 -2 9 28 12 37 12 30 0z m130 1 c7 -12 -12 -24 -25 -16 -11
7 -4 25 10 25 5 0 11 -4 15 -9z m-837 -18 c-10 -2 -18 -8 -18 -13 0 -10 -38
-1 -46 11 -3 5 14 8 38 8 24 -1 35 -3 26 -6z m2032 -68 c0 -7 -6 -18 -14 -24
-11 -9 -15 -7 -19 8 -6 23 -3 28 18 28 8 0 15 -6 15 -12z m-1665 -35 c4 -6 13
-5 25 2 11 7 22 10 25 6 8 -8 -22 -78 -34 -78 -28 0 -41 14 -41 46 0 33 12 45
25 24z m6040 -10 c3 -5 -3 -10 -14 -10 -12 0 -21 5 -21 10 0 6 6 10 14 10 8 0
18 -4 21 -10z m66 -38 c15 -13 19 -21 11 -26 -7 -4 -12 -2 -12 5 0 7 -10 9
-30 6 -32 -7 -33 -7 -24 17 8 21 27 20 55 -2z m-867 -7 c-4 -8 -10 -15 -15
-15 -5 0 -9 7 -9 15 0 8 7 15 15 15 9 0 12 -6 9 -15z m-4294 -31 c0 -6 -7 -17
-15 -24 -9 -8 -15 -8 -15 -2 0 6 -3 17 -6 26 -4 11 0 14 15 13 12 -1 21 -6 21
-13z m762 -39 c0 -5 -5 -11 -11 -13 -6 -2 -11 4 -11 13 0 9 5 15 11 13 6 -2
11 -8 11 -13z m-139 -2 c-7 -2 -19 -2 -25 0 -7 3 -2 5 12 5 14 0 19 -2 13 -5z
m-1313 -42 c0 -15 -17 -22 -36 -14 -16 6 -16 7 2 14 27 11 34 10 34 0z m5035
-31 c3 -5 -1 -10 -9 -10 -9 0 -16 5 -16 10 0 6 4 10 9 10 6 0 13 -4 16 -10z
m-4304 -53 c-13 -13 -31 0 -24 19 4 11 8 12 20 3 9 -8 10 -16 4 -22z m-406 13
c3 -5 -1 -10 -9 -10 -9 0 -16 5 -16 10 0 6 4 10 9 10 6 0 13 -4 16 -10z m4755
-40 c0 -5 -7 -10 -16 -10 -8 0 -12 5 -9 10 3 6 10 10 16 10 5 0 9 -4 9 -10z
m-4570 -17 c0 -5 -4 -14 -9 -22 -8 -12 -12 -12 -25 2 -12 11 -13 17 -3 20 19
8 37 8 37 0z m-39 -116 c-13 -13 -31 0 -24 19 4 11 8 12 20 3 9 -8 10 -16 4
-22z m64 12 c4 -6 5 -13 2 -16 -8 -7 -47 7 -47 18 0 13 37 11 45 -2z m4713
-45 c33 -9 27 -22 -10 -19 -41 4 -40 3 -33 15 7 12 12 12 43 4z m-173 -14 c3
-5 1 -10 -4 -10 -6 0 -11 5 -11 10 0 6 2 10 4 10 3 0 8 -4 11 -10z m-545 -86
c0 -6 -7 -17 -15 -24 -9 -8 -15 -8 -15 -2 0 6 -3 17 -6 26 -4 11 0 14 15 13
12 -1 21 -6 21 -13z m-2845 -44 c4 -7 -16 -7 -80 0 -17 2 -16 3 5 9 27 8 68 3
75 -9z m-475 -16 c29 -6 36 -11 27 -21 -9 -9 -97 -14 -121 -6 -18 5 -18 6 -2
15 9 5 13 14 10 20 -5 8 3 9 27 4 19 -4 45 -10 59 -12z m-224 -49 c26 -13 26
-15 7 -15 -28 0 -53 10 -53 21 0 13 14 11 46 -6z m848 -16 c-8 -14 -24 -11
-42 8 -16 16 -16 16 1 10 10 -4 17 -2 17 5 0 7 5 6 15 -2 8 -7 12 -16 9 -21z
m-124 11 c-8 -5 -24 -9 -35 -9 l-20 0 20 9 c11 5 27 9 35 9 13 1 13 0 0 -9z
m-525 -51 c-4 -5 -18 -9 -33 -9 l-27 0 25 14 c26 13 44 11 35 -5z m3260 11
c-3 -5 -16 -10 -28 -9 -20 1 -20 2 3 9 14 4 26 8 28 9 2 1 0 -3 -3 -9z m130 1
c7 -12 -12 -24 -25 -16 -11 7 -4 25 10 25 5 0 11 -4 15 -9z m-3660 -11 c7 -12
-12 -12 -40 0 -18 8 -17 9 7 9 15 1 30 -3 33 -9z m190 0 c3 -5 1 -10 -4 -10
-6 0 -11 5 -11 10 0 6 2 10 4 10 3 0 8 -4 11 -10z m462 -36 c-3 -3 -12 -4 -19
-1 -8 3 -5 6 6 6 11 1 17 -2 13 -5z m3131 -3 c9 -5 30 -14 45 -20 47 -19 22
-34 -42 -26 -31 5 -72 7 -91 6 -19 0 -42 4 -50 10 -12 8 -9 9 13 5 15 -4 27
-2 27 3 0 6 6 8 13 5 7 -2 21 2 32 10 24 18 30 19 53 7z m-2550 -43 c-22 -32
-38 -34 -38 -4 0 21 5 26 26 26 25 0 26 -1 12 -22z m2498 -67 c5 -5 18 -11 29
-14 11 -3 -6 -3 -37 -2 -75 5 -113 24 -47 25 25 0 49 -4 55 -9z m-2686 -49 c0
-13 72 -32 100 -26 l25 5 -24 -14 c-21 -12 -31 -12 -78 0 -30 8 -63 11 -73 8
-11 -3 -30 0 -42 7 -22 12 -20 13 27 19 28 3 53 7 58 7 4 1 7 -2 7 -6z m2680
-46 c0 -9 -40 -13 -46 -5 -3 5 6 9 20 9 14 0 26 -2 26 -4z m-2660 -46 c13 -8
12 -10 -2 -10 -10 0 -18 -4 -18 -9 0 -5 -11 -8 -25 -8 -14 0 -28 3 -31 8 -3 5
6 9 20 9 14 0 26 5 26 10 0 13 11 13 30 0z m2310 -381 c0 -11 -21 -11 -39 0
-9 6 -5 9 13 9 14 0 26 -4 26 -9z m-10 -123 c0 -2 -7 -6 -15 -10 -8 -3 -15 -1
-15 4 0 6 7 10 15 10 8 0 15 -2 15 -4z m-2766 -1451 c-4 -8 -11 -15 -16 -15
-6 0 -5 6 2 15 7 8 14 15 16 15 2 0 1 -7 -2 -15z m151 6 c18 -7 17 -8 -6 -13
-17 -3 -26 0 -26 9 0 15 3 15 32 4z m-121 -15 c-21 -15 -30 -14 -19 3 3 6 14
11 23 11 13 0 13 -2 -4 -14z m76 4 c0 -5 -5 -10 -11 -10 -5 0 -7 5 -4 10 3 6
8 10 11 10 2 0 4 -4 4 -10z m5407 -1015 c0 -8 -4 -15 -9 -15 -10 0 -11 14 -1
23 9 10 10 9 10 -8z m603 -6 c0 -5 -7 -9 -15 -9 -8 0 -15 7 -15 15 0 9 6 12
15 9 8 -4 15 -10 15 -15z m-100 7 c0 -2 -7 -6 -15 -10 -8 -3 -15 -1 -15 4 0 6
7 10 15 10 8 0 15 -2 15 -4z m-270 -26 c0 -5 -5 -10 -11 -10 -5 0 -7 5 -4 10
3 6 8 10 11 10 2 0 4 -4 4 -10z m57 -22 c-3 -8 -6 -5 -6 6 -1 11 2 17 5 13 3
-3 4 -12 1 -19z m640 -90 c-3 -8 -6 -5 -6 6 -1 11 2 17 5 13 3 -3 4 -12 1 -19z"/>
<path d="M9792 4365 c0 -16 2 -22 5 -12 2 9 2 23 0 30 -3 6 -5 -1 -5 -18z"/>
<path d="M9517 4423 c-12 -12 -7 -22 8 -17 8 4 15 10 15 15 0 11 -14 12 -23 2z"/>
<path d="M854 7665 c11 -8 31 -15 45 -15 31 1 12 14 -34 24 -28 6 -29 5 -11
-9z"/>
<path d="M960 7663 c0 -5 19 -9 43 -10 30 -2 38 0 27 7 -18 11 -70 13 -70 3z"/>
<path d="M1304 7475 c-10 -8 -14 -15 -8 -15 6 0 17 7 24 15 16 19 9 19 -16 0z"/>
<path d="M475 7450 c-3 -5 -2 -10 4 -10 5 0 13 5 16 10 3 6 2 10 -4 10 -5 0
-13 -4 -16 -10z"/>
<path d="M724 7435 c-10 -8 -14 -15 -8 -15 6 0 17 7 24 15 16 19 9 19 -16 0z"/>
<path d="M517 7412 c-15 -17 -15 -18 3 -19 14 -1 20 5 20 18 0 24 -3 24 -23 1z"/>
<path d="M471 7406 c-1 -16 -4 -17 -13 -8 -17 17 -39 15 -32 -3 4 -8 17 -18
30 -21 13 -3 24 -13 24 -22 0 -11 3 -13 11 -5 7 7 6 20 -5 44 -10 24 -15 28
-15 15z"/>
<path d="M505 7370 c3 -5 10 -10 16 -10 5 0 9 5 9 10 0 6 -7 10 -16 10 -8 0
-12 -4 -9 -10z"/>
<path d="M1214 7365 c11 -8 31 -15 45 -15 31 1 12 14 -34 24 -28 6 -29 5 -11
-9z"/>
<path d="M1320 7362 c0 -4 16 -8 35 -9 19 -1 32 3 29 8 -7 11 -64 12 -64 1z"/>
<path d="M410 7340 c14 -4 32 -8 40 -9 13 -1 13 0 0 9 -8 5 -26 9 -40 9 l-25
-1 25 -8z"/>
<path d="M500 7343 c0 -5 17 -9 37 -10 26 -1 33 1 23 7 -18 12 -60 13 -60 3z"/>
<path d="M12673 7342 c-8 -5 -9 -13 -3 -22 7 -12 10 -12 16 3 8 21 3 29 -13
19z"/>
<path d="M630 7330 c0 -4 10 -10 23 -14 31 -8 39 -7 33 3 -7 11 -56 21 -56 11z"/>
<path d="M255 7150 c-3 -6 1 -7 9 -4 18 7 21 14 7 14 -6 0 -13 -4 -16 -10z"/>
<path d="M300 7115 c-10 -12 -10 -15 4 -15 9 0 16 7 16 15 0 8 -2 15 -4 15 -2
0 -9 -7 -16 -15z"/>
<path d="M207 7094 c3 -8 18 -18 34 -21 16 -3 26 -10 22 -16 -3 -5 -1 -7 5 -4
15 10 2 49 -14 43 -7 -3 -16 -1 -19 4 -10 17 -35 11 -28 -6z"/>
<path d="M2055 7089 c-4 -6 -5 -12 -2 -15 2 -3 7 2 10 11 7 17 1 20 -8 4z"/>
<path d="M290 7070 c0 -5 4 -10 9 -10 6 0 13 5 16 10 3 6 -1 10 -9 10 -9 0
-16 -4 -16 -10z"/>
<path d="M2084 7069 c-3 -6 -17 -9 -30 -6 -13 2 -24 0 -24 -4 0 -5 3 -10 8
-10 39 -7 51 -4 55 12 6 21 2 25 -9 8z"/>
<path d="M200 7040 c8 -5 22 -10 30 -10 13 0 13 1 0 10 -8 5 -22 10 -30 10
-13 0 -13 -1 0 -10z"/>
<path d="M315 7040 c3 -5 11 -10 16 -10 6 0 7 5 4 10 -3 6 -11 10 -16 10 -6 0
-7 -4 -4 -10z"/>
<path d="M12030 6924 c0 -8 5 -12 10 -9 6 3 10 10 10 16 0 5 -4 9 -10 9 -5 0
-10 -7 -10 -16z"/>
<path d="M1724 6915 c-10 -8 -14 -15 -8 -15 6 0 17 7 24 15 16 19 9 19 -16 0z"/>
<path d="M6629 6856 c-55 -19 -148 -95 -245 -201 -83 -91 -89 -95 -128 -95
-23 0 -68 -7 -100 -15 -32 -8 -62 -13 -67 -10 -5 4 -19 -1 -31 -9 -12 -9 -36
-16 -53 -16 -16 0 -57 -12 -90 -25 -34 -14 -80 -25 -107 -25 -54 0 -95 -28
-103 -70 -3 -14 -9 -26 -15 -28 -6 -2 -7 -8 -4 -13 3 -6 12 -2 20 8 9 12 13
13 14 5 0 -7 4 -11 9 -7 5 3 12 1 16 -5 3 -5 0 -10 -7 -11 -7 0 1 -5 17 -11
17 -6 33 -16 38 -22 5 -8 10 -7 16 3 8 12 12 12 25 2 14 -12 16 -10 16 8 0 11
5 20 11 18 6 -1 14 4 17 12 3 8 0 11 -7 7 -6 -4 -11 0 -11 9 0 12 5 15 16 11
9 -3 17 -6 20 -6 2 0 1 -7 -2 -15 -4 -8 -1 -15 5 -15 6 0 11 -10 11 -22 0 -16
3 -19 11 -11 16 16 39 5 32 -14 -4 -11 -2 -14 5 -9 7 4 12 1 12 -8 0 -11 8
-13 27 -10 15 3 30 8 33 11 3 3 -5 4 -17 1 -13 -4 -24 0 -27 8 -3 9 0 11 11 7
12 -5 15 -2 11 9 -5 11 1 15 22 14 17 -1 26 -5 23 -13 -3 -7 0 -13 7 -13 10 0
10 -3 0 -15 -7 -9 -9 -19 -5 -23 4 -4 10 -1 12 6 3 6 9 12 15 12 6 0 8 -7 5
-15 -4 -8 -2 -17 3 -20 6 -4 10 5 10 19 0 24 4 26 43 26 23 0 37 -4 30 -8 -8
-5 -9 -12 -2 -22 7 -11 11 -12 17 -3 4 7 13 9 21 4 9 -6 7 -10 -8 -14 -15 -3
-19 -10 -15 -22 4 -9 9 -14 11 -11 3 3 16 1 29 -4 19 -8 24 -6 24 6 0 9 -5 12
-12 8 -7 -4 -8 -3 -4 4 9 15 26 16 26 1 0 -6 6 -17 14 -25 11 -11 16 -11 19
-1 3 6 6 2 6 -10 1 -14 -5 -23 -14 -23 -8 0 -15 -4 -15 -8 0 -5 7 -9 15 -9 8
0 15 5 15 10 0 5 7 7 15 3 12 -4 14 0 9 19 -4 16 -2 25 6 25 6 0 8 -4 5 -10
-3 -5 -2 -10 4 -10 5 0 12 6 14 13 3 6 5 0 4 -15 -1 -16 -6 -28 -11 -28 -5 0
-7 -2 -4 -5 8 -9 38 6 32 16 -3 5 0 9 6 9 7 0 9 7 6 16 -3 9 -2 12 5 9 6 -4 8
-13 5 -21 -3 -8 -1 -14 5 -14 6 0 9 -6 6 -13 -3 -9 4 -13 24 -12 16 1 32 4 35
8 4 4 14 7 23 7 14 0 14 -2 1 -10 -12 -7 -8 -10 15 -10 17 0 41 9 54 19 23 17
24 17 48 -7 19 -19 22 -27 11 -33 -10 -7 -9 -9 5 -9 10 0 17 8 17 19 0 20 32
37 49 27 5 -4 11 -1 13 6 3 9 9 8 21 -4 12 -12 14 -18 4 -21 -6 -3 9 -3 36 0
41 5 47 4 41 -11 -4 -12 0 -16 15 -16 12 0 21 5 21 10 0 6 7 10 15 10 8 0 15
-4 15 -9 0 -5 8 -12 18 -14 9 -3 4 -5 -13 -6 -16 -1 -25 -5 -19 -9 6 -4 14
-14 17 -22 4 -11 6 -11 6 4 1 12 6 16 16 12 9 -3 15 0 15 8 0 8 11 13 28 12
29 -1 38 -26 12 -33 -13 -4 -13 -3 0 6 8 5 12 13 9 16 -11 10 -28 -20 -20 -34
7 -11 15 -10 42 5 19 11 36 22 37 27 5 11 22 -2 22 -18 0 -7 -8 -16 -17 -18
-10 -2 -8 -3 4 -2 12 1 24 -1 26 -4 2 -3 2 0 1 7 -2 6 1 12 6 12 6 0 10 -4 10
-10 0 -5 9 -14 21 -20 18 -10 19 -9 11 7 -8 15 -7 19 8 20 13 1 17 -4 13 -20
-3 -16 -2 -18 5 -8 7 9 12 10 16 2 4 -6 -3 -15 -16 -20 -23 -10 -23 -10 -1
-10 12 -1 24 -9 26 -18 4 -14 5 -12 6 5 1 26 19 29 37 5 7 -10 16 -14 20 -10
5 4 2 12 -6 17 -12 7 -11 10 4 16 14 5 15 9 4 15 -10 7 -9 9 3 9 19 0 33 -26
19 -35 -14 -8 -12 -35 1 -35 6 0 8 7 5 16 -4 12 -2 15 9 11 8 -4 17 -2 20 4 7
11 25 3 25 -12 0 -5 -10 -9 -22 -9 -12 0 -19 -2 -16 -5 3 -3 24 -3 47 1 36 6
40 9 35 29 -3 13 -2 25 3 28 4 3 9 -8 10 -24 2 -23 -3 -32 -20 -39 -16 -6 -17
-9 -5 -9 28 -1 68 18 68 32 0 23 38 60 55 53 32 -12 13 3 -37 29 -29 15 -59
36 -66 47 -7 10 -18 16 -23 13 -5 -3 -6 1 -3 9 3 9 1 16 -6 16 -6 0 -9 3 -6 8
2 4 -12 30 -32 57 -20 27 -50 76 -67 109 -31 62 -74 101 -124 112 -14 4 -45
17 -68 30 -36 21 -50 40 -98 133 -103 197 -202 280 -296 247z m-884 -474 c-3
-3 -11 0 -18 7 -9 10 -8 11 6 5 10 -3 15 -9 12 -12z m91 -36 c0 -14 -6 -22
-13 -19 -7 3 -13 7 -13 9 0 4 23 33 26 34 1 0 1 -11 0 -24z m-46 -6 c0 -5 -5
-10 -11 -10 -5 0 -7 5 -4 10 3 6 8 10 11 10 2 0 4 -4 4 -10z m210 -4 c0 -2 -7
-6 -15 -10 -8 -3 -15 -1 -15 4 0 6 7 10 15 10 8 0 15 -2 15 -4z m476 -163
c-10 -11 -56 -11 -56 -1 0 6 9 8 19 5 12 -3 22 1 27 12 5 12 8 13 11 3 3 -7 3
-16 -1 -19z m159 -3 c-3 -5 -11 -10 -16 -10 -6 0 -7 5 -4 10 3 6 11 10 16 10
6 0 7 -4 4 -10z m191 -16 c-18 -17 -23 -18 -23 -1 0 7 9 14 19 14 16 2 16 0 4
-13z m439 -104 c3 -5 1 -10 -4 -10 -6 0 -11 5 -11 10 0 6 2 10 4 10 3 0 8 -4
11 -10z m65 -20 c0 -6 -2 -10 -4 -10 -2 0 -11 -3 -19 -6 -8 -3 -17 1 -20 8 -3
9 4 15 19 16 13 1 24 -3 24 -8z m-50 -14 c0 -3 -4 -8 -10 -11 -5 -3 -10 -1
-10 4 0 6 5 11 10 11 6 0 10 -2 10 -4z m110 -20 c0 -3 -4 -8 -10 -11 -5 -3
-10 -1 -10 4 0 6 5 11 10 11 6 0 10 -2 10 -4z"/>
<path d="M1620 6816 c0 -12 57 -34 69 -26 14 8 11 9 -51 26 -10 3 -18 3 -18 0z"/>
<path d="M2584 6595 c-10 -8 -14 -15 -8 -15 6 0 17 7 24 15 16 19 9 19 -16 0z"/>
<path d="M10590 6404 c0 -14 3 -14 15 -4 8 7 15 14 15 16 0 2 -7 4 -15 4 -8 0
-15 -7 -15 -16z"/>
<path d="M505 6390 c3 -5 8 -10 11 -10 2 0 4 5 4 10 0 6 -5 10 -11 10 -5 0 -7
-4 -4 -10z"/>
<path d="M11150 6384 c0 -8 5 -12 10 -9 6 3 10 10 10 16 0 5 -4 9 -10 9 -5 0
-10 -7 -10 -16z"/>
<path d="M3224 6336 c-19 -15 -19 -15 2 -13 11 0 21 7 21 14 0 16 1 16 -23 -1z"/>
<path d="M5624 6339 c-4 -7 -3 -9 4 -5 5 3 13 0 15 -6 4 -9 6 -10 6 -1 1 17
-16 25 -25 12z"/>
<path d="M5874 6318 c-4 -6 -2 -14 4 -16 7 -2 12 -10 12 -18 0 -9 4 -13 9 -10
10 7 2 56 -10 56 -4 0 -11 -5 -15 -12z"/>
<path d="M10850 6284 c0 -8 5 -12 10 -9 6 3 10 10 10 16 0 5 -4 9 -10 9 -5 0
-10 -7 -10 -16z"/>
<path d="M6130 6261 c0 -5 6 -11 13 -14 9 -3 9 -7 -1 -19 -10 -13 -9 -16 8
-21 22 -6 28 8 8 16 -10 4 -10 6 0 6 10 1 10 5 0 21 -13 21 -28 27 -28 11z"/>
<path d="M2924 6236 c-19 -15 -19 -15 2 -13 11 0 21 7 21 14 0 16 1 16 -23 -1z"/>
<path d="M1100 6220 c0 -5 7 -10 15 -10 8 0 15 -5 15 -11 0 -5 5 -7 12 -3 7 5
5 11 -7 21 -22 16 -35 17 -35 3z"/>
<path d="M1230 6200 c0 -5 5 -10 10 -10 6 0 10 5 10 10 0 6 -4 10 -10 10 -5 0
-10 -4 -10 -10z"/>
<path d="M2890 6206 c0 -2 7 -7 16 -10 8 -3 12 -2 9 4 -6 10 -25 14 -25 6z"/>
<path d="M2954 6192 c-10 -15 -8 -18 7 -19 13 -1 19 5 19 18 0 24 -12 25 -26
1z"/>
<path d="M1165 6180 c-3 -5 -1 -10 4 -10 6 0 11 5 11 10 0 6 -2 10 -4 10 -3 0
-8 -4 -11 -10z"/>
<path d="M1286 6157 c3 -10 9 -15 12 -12 3 3 0 11 -7 18 -10 9 -11 8 -5 -6z"/>
<path d="M1350 6160 c13 -9 13 -10 0 -10 -12 -1 -11 -3 3 -11 10 -6 23 -8 30
-5 7 2 5 5 -5 5 -11 1 -15 6 -12 16 4 10 0 15 -12 15 -16 0 -17 -2 -4 -10z"/>
<path d="M2945 6150 c3 -5 10 -10 16 -10 5 0 9 5 9 10 0 6 -7 10 -16 10 -8 0
-12 -4 -9 -10z"/>
<path d="M2830 6130 c0 -8 34 -20 59 -20 21 0 8 9 -28 20 -17 5 -31 5 -31 0z"/>
<path d="M2940 6122 c0 -4 16 -9 37 -9 24 -1 32 2 22 8 -18 11 -59 12 -59 1z"/>
<path d="M6699 6094 c-12 -16 -12 -17 4 -11 10 4 17 2 17 -5 0 -6 3 -9 6 -5 3
3 2 13 -3 22 -9 15 -11 15 -24 -1z"/>
<path d="M6790 6078 c0 -4 4 -8 9 -8 6 0 12 4 15 8 3 5 -1 9 -9 9 -8 0 -15 -4
-15 -9z"/>
<path d="M1578 6063 c7 -3 16 -2 19 1 4 3 -2 6 -13 5 -11 0 -14 -3 -6 -6z"/>
<path d="M3524 6056 c-19 -15 -19 -15 2 -13 11 0 21 7 21 14 0 16 1 16 -23 -1z"/>
<path d="M1540 6041 c0 -5 9 -7 20 -4 11 3 20 7 20 9 0 2 -9 4 -20 4 -11 0
-20 -4 -20 -9z"/>
<path d="M6908 6043 c7 -3 16 -2 19 1 4 3 -2 6 -13 5 -11 0 -14 -3 -6 -6z"/>
<path d="M6860 6036 c0 -2 7 -7 16 -10 8 -3 12 -2 9 4 -6 10 -25 14 -25 6z"/>
<path d="M7475 6030 c-10 -16 7 -31 23 -21 10 6 10 10 -2 20 -10 9 -16 9 -21
1z"/>
<path d="M10270 6024 c0 -8 5 -12 10 -9 6 3 10 10 10 16 0 5 -4 9 -10 9 -5 0
-10 -7 -10 -16z"/>
<path d="M1590 6020 c-9 -6 -10 -10 -3 -10 6 0 15 5 18 10 8 12 4 12 -15 0z"/>
<path d="M3498 6023 c6 -2 12 -12 12 -21 0 -12 -3 -13 -12 -4 -17 17 -39 15
-32 -3 4 -8 17 -18 31 -21 15 -4 22 -12 19 -20 -3 -8 0 -14 7 -15 7 0 27 -2
45 -4 18 -2 30 1 27 6 -4 5 -16 9 -29 9 -17 0 -27 10 -39 40 -8 22 -21 40 -29
39 -10 0 -10 -2 0 -6z"/>
<path d="M3553 6011 c-10 -16 -9 -19 4 -17 8 1 19 10 25 19 13 24 -14 22 -29
-2z"/>
<path d="M7428 6013 c7 -3 16 -2 19 1 4 3 -2 6 -13 5 -11 0 -14 -3 -6 -6z"/>
<path d="M9955 6010 c-3 -5 -1 -10 4 -10 6 0 11 5 11 10 0 6 -2 10 -4 10 -3 0
-8 -4 -11 -10z"/>
<path d="M1690 5980 c0 -5 5 -10 10 -10 6 0 10 5 10 10 0 6 -4 10 -10 10 -5 0
-10 -4 -10 -10z"/>
<path d="M3545 5970 c3 -5 10 -10 16 -10 5 0 9 5 9 10 0 6 -7 10 -16 10 -8 0
-12 -4 -9 -10z"/>
<path d="M7525 5971 c-3 -5 -2 -12 3 -15 5 -3 9 1 9 9 0 17 -3 19 -12 6z"/>
<path d="M3434 5945 c11 -8 31 -15 45 -15 31 1 12 14 -34 24 -28 6 -29 5 -11
-9z"/>
<path d="M1875 5900 c-3 -5 -1 -10 4 -10 6 0 11 5 11 10 0 6 -2 10 -4 10 -3 0
-8 -4 -11 -10z"/>
<path d="M1950 5850 c0 -6 7 -10 15 -10 8 0 15 2 15 4 0 2 -7 6 -15 10 -8 3
-15 1 -15 -4z"/>
<path d="M1995 5851 c-3 -6 4 -15 15 -21 23 -12 26 -5 6 16 -9 8 -17 10 -21 5z"/>
<path d="M9715 5850 c-3 -5 -1 -10 4 -10 6 0 11 5 11 10 0 6 -2 10 -4 10 -3 0
-8 -4 -11 -10z"/>
<path d="M4384 5674 c-18 -14 -18 -15 4 -4 12 6 22 13 22 15 0 8 -5 6 -26 -11z"/>
<path d="M4419 5638 c-1 -7 -1 -17 0 -22 1 -5 -3 -12 -10 -16 -8 -6 -8 -9 0
-14 10 -7 31 31 31 55 0 14 -20 11 -21 -3z"/>
<path d="M4370 5625 c0 -15 -3 -16 -12 -7 -17 17 -39 15 -32 -3 4 -8 17 -18
30 -21 13 -3 24 -12 24 -18 0 -7 6 -13 14 -13 11 0 11 6 -1 36 -19 45 -23 49
-23 26z"/>
<path d="M3886 5614 c-4 -9 -4 -19 -1 -22 2 -3 7 3 11 12 4 9 4 19 1 22 -2 3
-7 -3 -11 -12z"/>
<path d="M3790 5596 c0 -8 13 -19 30 -24 36 -13 38 5 1 25 -29 16 -31 16 -31
-1z"/>
<path d="M3870 5569 c0 -5 5 -7 10 -4 6 3 10 8 10 11 0 2 -4 4 -10 4 -5 0 -10
-5 -10 -11z"/>
<path d="M4320 5560 c8 -5 22 -10 30 -10 13 0 13 1 0 10 -8 5 -22 10 -30 10
-13 0 -13 -1 0 -10z"/>
<path d="M4430 5560 c8 -5 22 -10 30 -10 13 0 13 1 0 10 -8 5 -22 10 -30 10
-13 0 -13 -1 0 -10z"/>
<path d="M9428 5563 c-10 -2 -18 -9 -18 -14 0 -13 13 -11 36 6 19 14 14 17
-18 8z"/>
<path d="M3790 5540 c8 -5 20 -10 25 -10 6 0 3 5 -5 10 -8 5 -19 10 -25 10 -5
0 -3 -5 5 -10z"/>
<path d="M3888 5543 c7 -3 16 -2 19 1 4 3 -2 6 -13 5 -11 0 -14 -3 -6 -6z"/>
<path d="M4370 5535 c-7 -9 -29 -15 -53 -15 -39 0 -40 -1 -21 -14 11 -8 27
-14 35 -13 8 1 14 -2 14 -8 0 -5 -11 -10 -25 -10 -14 0 -31 -4 -39 -9 -11 -7
-8 -12 13 -23 45 -24 31 -49 -24 -44 -11 1 -10 -2 4 -13 17 -13 17 -18 5 -33
-9 -11 -10 -14 -1 -9 16 10 54 -3 46 -15 -3 -6 -9 -8 -12 -5 -3 4 -15 -2 -26
-13 -12 -10 -30 -21 -41 -24 -11 -3 2 -5 29 -4 31 1 51 -3 54 -11 2 -7 -1 -12
-8 -12 -6 0 -8 -5 -5 -10 4 -6 3 -9 -2 -8 -4 1 -18 -3 -31 -10 -12 -7 -32 -10
-42 -7 -12 4 -20 2 -20 -4 0 -6 11 -11 24 -11 14 0 28 -5 31 -10 4 -6 10 -8
15 -5 9 5 36 -23 28 -30 -3 -3 -24 -6 -46 -8 -23 -1 -42 -3 -42 -5 0 -1 11 -7
25 -12 21 -8 24 -14 19 -35 -4 -16 -2 -25 6 -25 6 0 9 -4 5 -9 -3 -5 -1 -12 4
-16 6 -3 15 3 20 14 8 14 8 21 -2 24 -9 4 -9 6 1 6 20 1 25 -27 7 -45 -9 -9
-13 -19 -9 -23 4 -3 9 0 11 7 3 6 9 12 14 12 6 0 7 -4 4 -10 -8 -13 8 -13 22
1 7 7 15 6 25 -5 17 -16 38 -4 38 21 0 7 5 13 11 13 6 0 9 -7 5 -15 -8 -21 23
-19 41 3 13 15 13 15 4 -5 -8 -16 -7 -22 5 -27 8 -3 13 -2 10 3 -3 5 1 12 10
15 9 3 12 2 9 -4 -4 -7 7 -10 30 -8 20 1 39 6 42 11 3 5 -5 8 -18 6 -38 -3
-78 19 -79 44 0 4 25 7 55 7 30 0 55 4 55 8 0 5 23 8 50 9 38 0 55 5 70 21 12
12 16 23 10 27 -6 3 -10 2 -10 -4 0 -21 -105 -36 -147 -20 -27 10 -22 29 8 29
10 0 19 5 19 11 0 5 -4 8 -10 4 -5 -3 -21 -3 -35 1 -26 6 -34 29 -12 37 7 3 4
6 -7 6 -11 1 -16 6 -13 15 3 8 -2 16 -14 19 -27 7 -24 20 14 42 l32 20 -49 5
c-60 6 -69 23 -19 36 47 12 53 30 9 31 -66 2 -106 43 -41 43 19 0 35 5 35 10
0 6 -11 10 -24 10 -25 0 -51 22 -39 33 3 4 18 7 32 7 15 0 21 4 16 9 -14 13
-57 17 -74 7 -11 -7 -13 -5 -8 7 8 22 -8 30 -23 12z m34 -460 c3 -8 1 -15 -4
-15 -6 0 -10 7 -10 15 0 8 2 15 4 15 2 0 6 -7 10 -15z m-37 -11 c-3 -3 -12 -4
-19 -1 -8 3 -5 6 6 6 11 1 17 -2 13 -5z"/>
<path d="M8988 5503 c-24 -6 -23 -22 0 -20 10 0 19 7 19 14 0 7 -1 12 -1 12
-1 -1 -9 -3 -18 -6z"/>
<path d="M2901 5384 c0 -11 3 -14 6 -6 3 7 2 16 -1 19 -3 4 -6 -2 -5 -13z"/>
<path d="M3070 5375 c0 -8 5 -15 10 -15 6 0 10 7 10 15 0 8 -4 15 -10 15 -5 0
-10 -7 -10 -15z"/>
<path d="M9268 5383 c-10 -2 -18 -9 -18 -14 0 -14 16 -11 30 6 7 8 11 14 9 14
-2 -1 -12 -3 -21 -6z"/>
<path d="M4140 5350 c0 -5 5 -10 10 -10 6 0 10 5 10 10 0 6 -4 10 -10 10 -5 0
-10 -4 -10 -10z"/>
<path d="M4050 5334 c0 -8 4 -13 9 -9 5 3 12 1 16 -5 7 -12 25 -13 25 -2 0 5
-11 14 -25 20 -21 10 -25 9 -25 -4z"/>
<path d="M3050 5325 c0 -8 2 -15 4 -15 2 0 6 7 10 15 3 8 1 15 -4 15 -6 0 -10
-7 -10 -15z"/>
<path d="M3115 5321 c-3 -5 -1 -12 5 -16 5 -3 10 1 10 9 0 18 -6 21 -15 7z"/>
<path d="M3196 5303 c-6 -14 -5 -15 5 -6 7 7 10 15 7 18 -3 3 -9 -2 -12 -12z"/>
<path d="M5066 5295 c-11 -8 -15 -15 -9 -15 6 0 16 7 23 15 16 19 11 19 -14 0z"/>
<path d="M4756 5251 c-17 -19 -17 -19 3 -14 12 3 21 12 21 19 0 18 -4 18 -24
-5z"/>
<path d="M5100 5255 c-13 -16 -36 -20 -43 -7 -2 4 -2 1 -1 -6 3 -9 -1 -10 -16
-2 -10 5 -23 10 -29 10 -18 0 0 -29 22 -36 12 -4 27 -13 35 -20 7 -8 18 -14
23 -14 6 0 3 7 -5 16 -25 25 -18 41 17 35 9 -1 22 28 15 35 -3 2 -11 -2 -18
-11z"/>
<path d="M3473 5245 c-30 -13 -29 -24 0 -21 27 3 47 14 47 25 0 10 -20 9 -47
-4z"/>
<path d="M4670 5236 c0 -13 20 -26 41 -26 18 0 8 17 -16 28 -20 9 -25 9 -25
-2z"/>
<path d="M3670 5215 c0 -14 5 -25 10 -25 6 0 10 2 10 4 0 2 3 11 6 19 3 8 -2
17 -10 20 -12 5 -16 0 -16 -18z"/>
<path d="M3730 5232 c0 -5 9 -12 21 -15 13 -3 19 -1 16 6 -5 15 -37 22 -37 9z"/>
<path d="M4162 5232 c-8 -6 -2 -9 18 -9 20 0 26 3 18 9 -7 4 -15 8 -18 8 -3 0
-11 -4 -18 -8z"/>
<path d="M3530 5220 c19 -13 30 -13 30 0 0 6 -10 10 -22 10 -19 0 -20 -2 -8
-10z"/>
<path d="M5090 5209 c0 -5 5 -7 10 -4 6 3 10 8 10 11 0 2 -4 4 -10 4 -5 0 -10
-5 -10 -11z"/>
<path d="M3730 5206 c0 -1 9 -9 20 -19 15 -13 20 -14 20 -3 0 7 -9 16 -20 19
-11 3 -20 4 -20 3z"/>
<path d="M3541 5174 c0 -11 3 -14 6 -6 3 7 2 16 -1 19 -3 4 -6 -2 -5 -13z"/>
<path d="M4990 5186 c0 -2 9 -6 20 -9 11 -3 18 -1 14 4 -5 9 -34 13 -34 5z"/>
<path d="M5115 5180 c3 -5 8 -10 11 -10 2 0 4 5 4 10 0 6 -5 10 -11 10 -5 0
-7 -4 -4 -10z"/>
<path d="M5052 5154 c-6 -10 -23 -17 -46 -17 -31 -1 -35 -3 -21 -13 9 -7 29
-11 46 -10 16 1 29 1 29 0 0 -1 -11 -9 -25 -18 -19 -12 -30 -14 -44 -6 -15 7
-20 6 -25 -6 -5 -12 -2 -15 11 -10 10 4 14 4 10 0 -4 -4 0 -16 9 -26 16 -17
15 -19 -12 -30 -28 -12 -29 -14 -12 -30 11 -11 18 -13 18 -6 0 6 6 3 14 -7 16
-22 10 -49 -10 -41 -8 3 -11 0 -7 -9 3 -8 9 -13 13 -10 5 3 11 -1 13 -7 3 -7
6 -4 6 7 1 15 4 16 13 7 15 -15 50 -16 65 -1 8 8 13 8 17 0 4 -6 0 -11 -10
-11 -14 0 -14 -3 -4 -15 11 -13 15 -13 21 -3 6 9 9 7 9 -8 0 -29 31 -55 57
-48 14 4 19 11 16 25 -4 14 -11 17 -29 13 -15 -4 -24 -2 -24 6 0 6 5 8 11 5 6
-4 5 2 -2 13 -16 25 -5 40 16 22 10 -8 15 -9 15 -1 0 6 7 11 15 11 8 0 15 5
15 11 0 6 -14 9 -35 6 -19 -3 -38 -1 -41 4 -3 5 -15 9 -27 9 l-21 0 22 16 c12
8 26 13 31 9 5 -3 13 0 16 6 4 5 13 8 21 5 7 -3 16 -1 19 4 3 5 -11 12 -32 15
-48 8 -67 18 -71 38 -3 13 2 14 27 7 16 -4 32 -6 35 -2 13 12 5 22 -17 22 -23
0 -47 17 -47 32 0 4 11 8 25 8 14 0 25 4 25 9 0 15 -61 9 -67 -6 -8 -22 -24 7
-17 30 7 21 -2 22 -14 1z m18 -218 c0 -3 -4 -8 -10 -11 -5 -3 -10 -1 -10 4 0
6 5 11 10 11 6 0 10 -2 10 -4z"/>
<path d="M3902 5136 c10 -7 14 -17 10 -22 -4 -4 2 -2 12 6 13 10 17 10 12 3
-4 -7 -2 -13 3 -13 6 0 11 6 11 14 0 15 -21 26 -48 26 -16 -1 -16 -2 0 -14z"/>
<path d="M4735 5125 c-11 -9 -14 -13 -6 -9 9 5 12 3 7 -5 -4 -6 -12 -9 -17 -5
-12 7 -41 -15 -34 -27 3 -4 -8 -3 -25 3 -42 14 -48 4 -11 -18 25 -15 28 -20
18 -33 -10 -12 -9 -14 6 -8 9 3 17 2 17 -3 0 -10 -9 -13 -50 -12 -16 1 -19 -1
-7 -4 9 -3 17 -10 17 -15 0 -6 -6 -7 -12 -3 -10 5 -10 4 -2 -5 9 -10 18 -9 39
5 23 15 28 15 36 3 5 -8 9 -9 9 -4 0 6 7 2 14 -8 15 -20 48 -13 39 8 -4 11 4
14 30 12 25 -2 34 0 30 10 -7 18 -44 16 -71 -2 -20 -14 -21 -14 -16 0 3 8 11
15 18 15 15 0 -16 20 -32 20 -9 0 -11 -7 -7 -22 5 -18 4 -20 -4 -8 -6 8 -11
18 -11 22 0 14 60 35 90 32 38 -5 31 11 -9 19 -22 5 -30 13 -33 32 -3 25 -4
25 -23 10z"/>
<path d="M4780 5130 c-12 -8 -9 -9 12 -8 15 1 24 6 22 10 -7 10 -16 10 -34 -2z"/>
<path d="M3715 5120 c3 -5 8 -10 11 -10 2 0 4 5 4 10 0 6 -5 10 -11 10 -5 0
-7 -4 -4 -10z"/>
<path d="M8436 5111 c-17 -19 -17 -19 3 -14 12 3 21 12 21 19 0 18 -4 18 -24
-5z"/>
<path d="M4188 5113 c12 -2 22 -8 22 -12 0 -5 -12 -6 -27 -3 -27 5 -27 4 -10
-13 10 -9 20 -15 24 -12 3 3 16 2 28 -3 16 -6 25 -5 28 3 6 19 -20 38 -55 41
-18 2 -23 1 -10 -1z"/>
<path d="M8340 5106 c0 -3 7 -12 16 -20 19 -20 51 -21 51 -2 0 8 -6 12 -13 9
-6 -2 -15 0 -19 6 -6 10 -35 16 -35 7z"/>
<path d="M8725 5100 c-12 -19 -57 -32 -69 -20 -14 14 -26 13 -26 -4 0 -16 21
-26 68 -32 19 -2 32 0 32 7 0 6 -9 9 -20 6 -11 -3 -23 -1 -26 4 -5 8 17 14 39
10 9 -1 21 28 14 35 -3 3 -8 0 -12 -6z"/>
<path d="M3968 5083 c6 -2 18 -2 25 0 6 3 1 5 -13 5 -14 0 -19 -2 -12 -5z"/>
<path d="M8430 5069 c0 -5 5 -7 10 -4 6 3 10 8 10 11 0 2 -4 4 -10 4 -5 0 -10
-5 -10 -11z"/>
<path d="M4125 5050 c-3 -5 0 -11 7 -11 48 -5 62 -2 66 10 3 10 0 11 -9 5 -20
-12 -39 -14 -39 -3 0 12 -17 12 -25 -1z"/>
<path d="M8340 5040 c20 -13 33 -13 25 0 -3 6 -14 10 -23 10 -15 0 -15 -2 -2
-10z"/>
<path d="M8440 5046 c0 -2 9 -6 20 -9 11 -3 18 -1 14 4 -5 9 -34 13 -34 5z"/>
<path d="M4436 5021 c-4 -5 -2 -12 3 -15 5 -4 12 -2 15 3 4 5 2 12 -3 15 -5 4
-12 2 -15 -3z"/>
<path d="M8620 5026 c0 -2 7 -7 16 -10 8 -3 12 -2 9 4 -6 10 -25 14 -25 6z"/>
<path d="M4855 5009 c-4 -6 -5 -12 -2 -15 2 -3 7 2 10 11 7 17 1 20 -8 4z"/>
<path d="M4138 5003 c6 -2 18 -2 25 0 6 3 1 5 -13 5 -14 0 -19 -2 -12 -5z"/>
<path d="M4505 4980 c3 -5 8 -10 11 -10 2 0 4 5 4 10 0 6 -5 10 -11 10 -5 0
-7 -4 -4 -10z"/>
<path d="M4755 4949 c-10 -15 1 -23 20 -15 9 3 13 10 10 16 -8 13 -22 13 -30
-1z"/>
<path d="M4567 4939 c7 -7 15 -10 18 -7 3 3 -2 9 -12 12 -14 6 -15 5 -6 -5z"/>
<path d="M4716 4935 c4 -8 10 -12 15 -9 11 6 2 24 -11 24 -5 0 -7 -7 -4 -15z"/>
<path d="M4815 4940 c3 -5 8 -10 11 -10 2 0 4 5 4 10 0 6 -5 10 -11 10 -5 0
-7 -4 -4 -10z"/>
<path d="M5615 4930 c-3 -6 1 -7 9 -4 18 7 21 14 7 14 -6 0 -13 -4 -16 -10z"/>
<path d="M5537 4916 c-3 -8 3 -16 14 -19 26 -7 32 6 9 21 -14 9 -19 8 -23 -2z"/>
<path d="M4920 4910 c-9 -6 -10 -10 -3 -10 6 0 15 5 18 10 8 12 4 12 -15 0z"/>
<path d="M5040 4891 c0 -6 4 -13 10 -16 6 -3 7 1 4 9 -7 18 -14 21 -14 7z"/>
<path d="M5001 4854 c0 -11 3 -14 6 -6 3 7 2 16 -1 19 -3 4 -6 -2 -5 -13z"/>
<path d="M5553 4805 c0 -8 4 -12 9 -9 4 3 8 9 8 15 0 5 -4 9 -8 9 -5 0 -9 -7
-9 -15z"/>
<path d="M5190 4801 c0 -6 4 -13 10 -16 6 -3 7 1 4 9 -7 18 -14 21 -14 7z"/>
<path d="M5598 4793 c7 -3 16 -2 19 1 4 3 -2 6 -13 5 -11 0 -14 -3 -6 -6z"/>
<path d="M5563 4784 c-7 -3 -9 -12 -6 -20 4 -12 -1 -14 -23 -9 -27 5 -27 5 -6
-5 28 -12 38 -8 45 20 3 11 4 20 4 19 -1 0 -7 -3 -14 -5z"/>
<path d="M5590 4768 c0 -4 5 -8 11 -8 5 0 8 -4 5 -9 -4 -5 3 -7 13 -4 15 4 17
8 8 17 -13 14 -37 17 -37 4z"/>
<path d="M8111 4714 c0 -11 3 -14 6 -6 3 7 2 16 -1 19 -3 4 -6 -2 -5 -13z"/>
<path d="M8010 4699 c0 -12 38 -31 44 -21 2 4 -7 12 -20 19 -13 6 -24 7 -24 2z"/>
<path d="M8258 4693 c6 -2 18 -2 25 0 6 3 1 5 -13 5 -14 0 -19 -2 -12 -5z"/>
<path d="M5620 4649 c0 -5 5 -7 10 -4 6 3 10 8 10 11 0 2 -4 4 -10 4 -5 0 -10
-5 -10 -11z"/>
<path d="M8093 4585 c0 -8 4 -12 9 -9 5 3 6 10 3 15 -9 13 -12 11 -12 -6z"/>
<path d="M8215 4560 c-3 -6 1 -7 9 -4 18 7 21 14 7 14 -6 0 -13 -4 -16 -10z"/>
<path d="M8346 4514 c-4 -10 -1 -14 6 -12 15 5 23 28 10 28 -5 0 -13 -7 -16
-16z"/>
<path d="M8760 4509 c0 -18 29 -41 48 -36 16 4 16 5 -1 6 -10 0 -16 5 -13 9 2
4 -4 13 -15 20 -13 8 -19 9 -19 1z"/>
<path d="M8629 4483 c-13 -16 -12 -17 4 -4 16 13 21 21 13 21 -2 0 -10 -8 -17
-17z"/>
<path d="M8678 4493 c7 -3 16 -2 19 1 4 3 -2 6 -13 5 -11 0 -14 -3 -6 -6z"/>
<path d="M8596 4475 c-9 -26 -7 -32 5 -12 6 10 9 21 6 23 -2 3 -7 -2 -11 -11z"/>
<path d="M8690 4460 c0 -11 2 -20 4 -20 2 0 6 9 9 20 3 11 1 20 -4 20 -5 0 -9
-9 -9 -20z"/>
<path d="M8525 4460 c3 -5 10 -10 16 -10 5 0 9 5 9 10 0 6 -7 10 -16 10 -8 0
-12 -4 -9 -10z"/>
<path d="M11245 110 c-3 -5 3 -10 14 -10 12 0 21 5 21 10 0 6 -6 10 -14 10 -8
0 -18 -4 -21 -10z"/>
<path d="M10590 90 c0 -5 5 -10 11 -10 5 0 7 5 4 10 -3 6 -8 10 -11 10 -2 0
-4 -4 -4 -10z"/>
<path d="M10875 90 c3 -5 8 -10 11 -10 2 0 4 5 4 10 0 6 -5 10 -11 10 -5 0 -7
-4 -4 -10z"/>
<path d="M10565 80 c-3 -5 -1 -10 4 -10 6 0 11 5 11 10 0 6 -2 10 -4 10 -3 0
-8 -4 -11 -10z"/>
</g>
</svg>
